M48
INCH
T01C0.0138
T02C0.0191
T03C0.028
T04C0.032
T05C0.0394
T06C0.0429
T07C0.0433
T08C0.0472
T09C0.0669
T10C0.1283
%
T01
X+024328Y+009187
X+025141Y+010125
X+025827Y+010354
X+027331Y+010937
X+027866Y+010937
X+028891Y+010937
X+029658Y+011220
X+031752Y+012126
X+031732Y+008189
X+032480Y+008071
X+029391Y+008622
X+029330Y+008189
X+027756Y+008625
X+026703Y+008187
X+024370Y+007559
X+022891Y+008250
X+021575Y+008661
X+020178Y+008661
X+018740Y+009685
X+018661Y+007559
X+014843Y+008187
X+013228Y+007874
X+010623Y+008275
X+009783Y+009114
X+010703Y+010034
X+009324Y+007874
X+013203Y+012625
X+015585Y+010984
X+022283Y+011488
X+024330Y+012126
X+029606Y+005945
T02
X+025502Y+013750
X+026328Y+012126
X+027953Y+007562
X+031016Y+005000
X+020039Y+012717
X+019094Y+011732
X+008110Y+008030
T03
X+006266Y+005937
X+006266Y+004937
X+006266Y+014875
X+006266Y+015875
T04
X+027641Y+015187
X+026641Y+015187
T05
X+017703Y+015562
X+019672Y+014066
X+021640Y+015562
T06
X+034516Y+012562
X+034516Y+011471
X+034516Y+010381
X+034516Y+009290
X+034516Y+008200
X+035634Y+008745
X+035634Y+009835
X+035634Y+010926
X+035634Y+012017
T07
X+026956Y+005312
X+025956Y+005312
X+024956Y+005312
X+023956Y+005312
X+022956Y+005312
X+021956Y+005312
X+020236Y+005929
X+020236Y+006929
X+019236Y+006929
X+019236Y+005929
X+018236Y+005929
X+018236Y+006929
X+020039Y+009457
X+020039Y+010457
X+020039Y+011457
X+021039Y+011457
X+021039Y+010457
X+021039Y+009457
T08
X+005756Y+009394
X+005756Y+011362
T09
X+008792Y+008578
X+012729Y+008578
T10
X+035075Y+015300
X+035075Y+005461
T00
M30
