G04 DipTrace 2.4.0.2*
%INВерхняямаска.gbr*%
%MOIN*%
%ADD46C,0.0669*%
%ADD57C,0.0559*%
%ADD59R,0.0866X0.2244*%
%ADD61R,0.0925X0.1358*%
%ADD63R,0.0925X0.0453*%
%ADD69R,0.0866X0.0315*%
%ADD73R,0.1063X0.2835*%
%ADD81C,0.1063*%
%ADD83C,0.1953*%
%ADD85C,0.0744*%
%ADD87R,0.0744X0.0744*%
%ADD89C,0.0748*%
%ADD91R,0.0748X0.0748*%
%ADD93R,0.0579X0.0579*%
%ADD95C,0.0579*%
%ADD97R,0.0866X0.0945*%
%ADD98R,0.0709X0.0787*%
%ADD100R,0.0787X0.0709*%
%ADD102C,0.0866*%
%FSLAX44Y44*%
G04*
G70*
G90*
G75*
G01*
%LNTopMask*%
%LPD*%
D102*
X17703Y15562D3*
X21640D3*
X19672Y14066D3*
D100*
X25328Y11562D3*
Y12664D3*
Y9437D3*
Y8335D3*
D97*
X31476Y13602D3*
X32657D3*
X16759Y8875D3*
X15578D3*
X16766Y11750D3*
X15585D3*
D98*
X32956Y6437D3*
X31854D3*
X31968Y10614D3*
X33070D3*
X30129Y5198D3*
X29027D3*
X29038Y12625D3*
X30141D3*
D95*
X6266Y5937D3*
D93*
Y4937D3*
D95*
Y14875D3*
D93*
Y15875D3*
D91*
X26956Y5312D3*
D89*
X25956D3*
X24956D3*
X23956D3*
X22956D3*
X21956D3*
D87*
X34516Y12562D3*
D85*
Y11471D3*
Y10381D3*
Y9290D3*
Y8200D3*
X35634Y12017D3*
Y10926D3*
Y9835D3*
Y8745D3*
D83*
X35075Y15300D3*
Y5461D3*
D81*
X5756Y9394D3*
Y11362D3*
D91*
X20236Y6929D3*
D89*
Y5929D3*
X19236Y6929D3*
Y5929D3*
X18236Y6929D3*
Y5929D3*
D91*
X20039Y11457D3*
D89*
X21039D3*
X20039Y10457D3*
X21039D3*
X20039Y9457D3*
X21039D3*
D46*
X8792Y8578D3*
X12729D3*
D73*
X27141Y12812D3*
D100*
X8453Y4812D3*
Y5914D3*
X8578Y15875D3*
Y14772D3*
D69*
X30703Y7062D3*
Y7562D3*
Y8062D3*
Y8562D3*
Y9062D3*
Y9562D3*
Y10062D3*
Y10562D3*
X28577D3*
Y10062D3*
Y9562D3*
Y9062D3*
Y8562D3*
Y8062D3*
Y7562D3*
Y7062D3*
D63*
X12000Y9548D3*
Y10454D3*
Y11359D3*
D61*
X9717Y10454D3*
D59*
X23641Y8437D3*
Y12177D3*
D57*
X27641Y15187D3*
X26641D3*
M02*
