G04 DipTrace 2.4.0.2*
%INВерхняямаркировка.gbr*%
%MOIN*%
%ADD10C,0.0098*%
%ADD12C,0.003*%
%ADD14C,0.0197*%
%ADD37C,0.0154*%
%ADD104C,0.0077*%
%ADD105C,0.0062*%
%ADD107C,0.0124*%
%ADD108C,0.0046*%
%FSLAX44Y44*%
G04*
G70*
G90*
G75*
G01*
%LNTopSilk*%
%LPD*%
X18530Y15562D2*
D10*
X20813D1*
X22467Y15601D2*
X24002D1*
Y14066D1*
X20538D2*
X23963D1*
X15262Y15562D2*
X16798D1*
X15341Y14027D2*
X18766D1*
X15262Y15562D2*
Y14027D1*
X25643Y12070D2*
X25014D1*
X25643Y11995D2*
X25014D1*
X25643D2*
Y12231D1*
X25014Y11995D2*
Y12231D1*
Y8929D2*
X25643D1*
X25014Y9004D2*
X25643D1*
X25014D2*
Y8768D1*
X25643Y9004D2*
Y8768D1*
X31358Y14193D2*
X32776D1*
X31358Y13012D2*
X32776D1*
D14*
X30866Y13602D3*
X16878Y8284D2*
D10*
X15460D1*
X16878Y9465D2*
X15460D1*
D14*
X17370Y8875D3*
X16884Y11159D2*
D10*
X15467D1*
X16884Y12340D2*
X15467D1*
D14*
X17376Y11750D3*
X32448Y6752D2*
D10*
Y6123D1*
X32523Y6752D2*
Y6123D1*
Y6752D2*
X32287D1*
X32523Y6123D2*
X32287D1*
X32475Y10299D2*
Y10928D1*
X32401Y10299D2*
Y10928D1*
Y10299D2*
X32637D1*
X32401Y10928D2*
X32637D1*
X29622Y5513D2*
Y4884D1*
X29696Y5513D2*
Y4884D1*
Y5513D2*
X29460D1*
X29696Y4884D2*
X29460D1*
X29546Y12310D2*
Y12939D1*
X29472Y12310D2*
Y12939D1*
Y12310D2*
X29707D1*
X29472Y12939D2*
X29707D1*
X7015Y4437D2*
X5516D1*
X7018Y4439D2*
G03X5513Y4439I-752J998D01*
G01*
X5516Y16374D2*
X7015D1*
X5513Y16372D2*
G03X7018Y16372I752J-998D01*
G01*
X27455Y4812D2*
X21456D1*
Y5812D1*
X27455D1*
Y4812D1*
X40924Y5458D2*
G03X40924Y6464I-523J503D01*
G01*
Y4463D2*
G03X40924Y5458I-508J497D01*
G01*
X39091D2*
G03X39091Y4463I483J-497D01*
G01*
Y6464D2*
G03X39091Y5458I498J-503D01*
G01*
X40924Y15304D2*
G03X40924Y16298I-508J497D01*
G01*
Y14297D2*
G03X40924Y15304I-523J503D01*
G01*
X39091D2*
G03X39091Y14297I498J-503D01*
G01*
Y16298D2*
G03X39091Y15304I483J-497D01*
G01*
X40902Y6888D2*
G03X41178Y7167I-6J281D01*
G01*
X39091Y6888D2*
G03X38816Y6622I-14J-261D01*
G01*
X41178Y13594D2*
G03X40902Y13873I-281J-2D01*
G01*
X38816Y14140D2*
G03X39091Y13873I261J-6D01*
G01*
Y6464D2*
X38838Y6209D1*
X39091Y6464D2*
X40924D1*
X41178Y6209D1*
Y4706D1*
X40924Y4463D1*
X40424D2*
X40504D1*
X39091D2*
X40924D1*
X38838Y4706D2*
X39091Y4463D1*
Y5458D2*
X40924D1*
X39091Y16298D2*
X38838Y16056D1*
X39091Y16298D2*
X40924D1*
X41178Y16056D1*
Y14552D1*
X40924Y14297D1*
X40424D2*
X40504D1*
X39091D2*
X40924D1*
X38838Y14552D2*
X39091Y14297D1*
Y15304D2*
X40924D1*
X39091Y6888D2*
X40902D1*
X39091Y13873D2*
X40902D1*
X33933Y13133D2*
X37635D1*
X38816Y16444D2*
Y4318D1*
X33933Y7628D2*
X37635D1*
X33933Y16444D2*
Y4318D1*
X41178Y13594D2*
Y7167D1*
X33933Y16444D2*
X38816D1*
X33933Y4318D2*
X38816D1*
X37635Y16444D2*
Y4318D1*
X4181Y8409D2*
X7724D1*
Y12346D1*
X4181D1*
Y8409D1*
X4653D2*
Y12307D1*
X4220Y10378D2*
X7685D1*
X5047Y9395D2*
X5049Y9444D1*
X5054Y9494D1*
X5063Y9542D1*
X5075Y9591D1*
X5090Y9638D1*
X5108Y9684D1*
X5130Y9728D1*
X5155Y9771D1*
X5182Y9812D1*
X5213Y9851D1*
X5246Y9888D1*
X5282Y9922D1*
X5319Y9954D1*
X5359Y9983D1*
X5401Y10010D1*
X5445Y10033D1*
X5490Y10053D1*
X5537Y10070D1*
X5584Y10084D1*
X5633Y10094D1*
X5682Y10101D1*
X5731Y10104D1*
X5780D1*
X5830Y10101D1*
X5879Y10094D1*
X5927Y10084D1*
X5975Y10070D1*
X6021Y10053D1*
X6066Y10033D1*
X6110Y10010D1*
X6152Y9983D1*
X6192Y9954D1*
X6230Y9922D1*
X6266Y9888D1*
X6299Y9851D1*
X6329Y9812D1*
X6357Y9771D1*
X6381Y9728D1*
X6403Y9684D1*
X6422Y9638D1*
X6437Y9591D1*
X6449Y9542D1*
X6458Y9494D1*
X6463Y9444D1*
X6464Y9395D1*
X6463Y9345D1*
X6458Y9296D1*
X6449Y9247D1*
X6437Y9199D1*
X6422Y9152D1*
X6403Y9106D1*
X6381Y9062D1*
X6357Y9019D1*
X6329Y8978D1*
X6299Y8939D1*
X6266Y8902D1*
X6230Y8867D1*
X6192Y8836D1*
X6152Y8806D1*
X6110Y8780D1*
X6066Y8757D1*
X6021Y8737D1*
X5975Y8720D1*
X5927Y8706D1*
X5879Y8696D1*
X5830Y8689D1*
X5780Y8685D1*
X5731D1*
X5682Y8689D1*
X5633Y8696D1*
X5584Y8706D1*
X5537Y8720D1*
X5490Y8737D1*
X5445Y8757D1*
X5401Y8780D1*
X5359Y8806D1*
X5319Y8836D1*
X5282Y8867D1*
X5246Y8902D1*
X5213Y8939D1*
X5182Y8978D1*
X5155Y9019D1*
X5130Y9062D1*
X5108Y9106D1*
X5090Y9152D1*
X5075Y9199D1*
X5063Y9247D1*
X5054Y9296D1*
X5049Y9345D1*
X5047Y9395D1*
Y11363D2*
X5049Y11413D1*
X5054Y11462D1*
X5063Y11511D1*
X5075Y11559D1*
X5090Y11606D1*
X5108Y11652D1*
X5130Y11697D1*
X5155Y11740D1*
X5182Y11781D1*
X5213Y11820D1*
X5246Y11856D1*
X5282Y11891D1*
X5319Y11923D1*
X5359Y11952D1*
X5401Y11978D1*
X5445Y12001D1*
X5490Y12022D1*
X5537Y12038D1*
X5584Y12052D1*
X5633Y12062D1*
X5682Y12069D1*
X5731Y12073D1*
X5780D1*
X5830Y12069D1*
X5879Y12062D1*
X5927Y12052D1*
X5975Y12038D1*
X6021Y12022D1*
X6066Y12001D1*
X6110Y11978D1*
X6152Y11952D1*
X6192Y11923D1*
X6230Y11891D1*
X6266Y11856D1*
X6299Y11820D1*
X6329Y11781D1*
X6357Y11740D1*
X6381Y11697D1*
X6403Y11652D1*
X6422Y11606D1*
X6437Y11559D1*
X6449Y11511D1*
X6458Y11462D1*
X6463Y11413D1*
X6464Y11363D1*
X6463Y11314D1*
X6458Y11265D1*
X6449Y11216D1*
X6437Y11168D1*
X6422Y11121D1*
X6403Y11075D1*
X6381Y11030D1*
X6357Y10987D1*
X6329Y10946D1*
X6299Y10907D1*
X6266Y10870D1*
X6230Y10836D1*
X6192Y10804D1*
X6152Y10775D1*
X6110Y10749D1*
X6066Y10725D1*
X6021Y10705D1*
X5975Y10688D1*
X5927Y10675D1*
X5879Y10664D1*
X5830Y10657D1*
X5780Y10654D1*
X5731D1*
X5682Y10657D1*
X5633Y10664D1*
X5584Y10675D1*
X5537Y10688D1*
X5490Y10705D1*
X5445Y10725D1*
X5401Y10749D1*
X5359Y10775D1*
X5319Y10804D1*
X5282Y10836D1*
X5246Y10870D1*
X5213Y10907D1*
X5182Y10946D1*
X5155Y10987D1*
X5130Y11030D1*
X5108Y11075D1*
X5090Y11121D1*
X5075Y11168D1*
X5063Y11216D1*
X5054Y11265D1*
X5049Y11314D1*
X5047Y11363D1*
X20736Y5429D2*
X17736D1*
Y7429D1*
X20736D1*
Y5429D1*
X21539Y11957D2*
X19539D1*
Y8957D1*
X21539D1*
Y11957D1*
X8768Y5245D2*
Y5481D1*
X8139Y5245D2*
Y5481D1*
X8264Y15441D2*
Y15206D1*
X8893Y15441D2*
Y15206D1*
X30152Y6844D2*
Y10780D1*
X29128Y6844D2*
Y10780D1*
X30152D2*
X29128D1*
X30152Y6844D2*
X29837D1*
X29443D2*
X29128D1*
X29837D2*
G03X29443Y6844I-197J0D01*
G01*
D37*
X12302Y9165D3*
X11410Y9155D2*
D10*
Y11753D1*
X10308Y9155D2*
Y11753D1*
X11410D2*
X10308D1*
X11410Y9155D2*
X10308D1*
D37*
X23026Y7572D3*
X22971Y8063D2*
D10*
X22676D1*
X24605Y12551D2*
X24310D1*
X24605Y8063D2*
Y12551D1*
Y8063D2*
X24310D1*
X22971Y12551D2*
X22676D1*
Y8063D2*
Y12551D1*
X27691Y14537D2*
X26591D1*
X26641Y11287D2*
G02X26541Y11387I0J100D01*
G01*
X27741D2*
G02X27641Y11287I-100J0D01*
G01*
X26641D1*
X26591Y14537D2*
Y14387D1*
X26541D2*
X26591D1*
X26541D2*
Y11387D1*
X27691Y14537D2*
Y14387D1*
X27741D2*
X27691D1*
X27741D2*
Y11387D1*
X26591Y14387D2*
X27691D1*
G36*
X27021Y14787D2*
X26861D1*
Y14557D1*
X27021D1*
Y14787D1*
G37*
G36*
X27421D2*
X27261D1*
Y14557D1*
X27421D1*
Y14787D1*
G37*
X26944Y14892D2*
D10*
X26941Y14737D1*
X27341Y14887D2*
Y14787D1*
X26944Y14892D2*
X26905Y14951D1*
X27377D2*
X27338Y14892D1*
X27441Y12987D2*
Y13137D1*
X26841D2*
X27441D1*
X26841D2*
Y12987D1*
X27441D2*
X26841D1*
X27441Y12837D2*
X27141D1*
X27441Y13287D2*
X27141D1*
Y13487D1*
Y13287D2*
X26841D1*
X27141Y12837D2*
Y12637D1*
Y12837D2*
X26841D1*
X11094Y5954D2*
D12*
X11304D1*
X9598Y5924D2*
X10735D1*
X11027D2*
X11359D1*
X12052D2*
X12411D1*
X12501D2*
X13937D1*
X14117D2*
X15254D1*
X15403D2*
X15852D1*
X9559Y5894D2*
X10735D1*
X10972D2*
X11409D1*
X12052D2*
X12411D1*
X12501D2*
X13937D1*
X14088D2*
X15254D1*
X15403D2*
X15852D1*
X9530Y5865D2*
X10735D1*
X10933D2*
X11452D1*
X12052D2*
X12411D1*
X12501D2*
X13937D1*
X14063D2*
X15254D1*
X15403D2*
X15852D1*
X9508Y5835D2*
X10735D1*
X10903D2*
X11488D1*
X12052D2*
X12411D1*
X12501D2*
X13937D1*
X14045D2*
X15254D1*
X15403D2*
X15852D1*
X9494Y5805D2*
X10735D1*
X10889D2*
X11516D1*
X12052D2*
X12411D1*
X12501D2*
X13937D1*
X14035D2*
X15254D1*
X15403D2*
X15852D1*
X9485Y5775D2*
X10735D1*
X10877D2*
X11541D1*
X12052D2*
X12411D1*
X12501D2*
X13937D1*
X14030D2*
X15254D1*
X15403D2*
X15852D1*
X9481Y5745D2*
X10735D1*
X10867D2*
X11562D1*
X12052D2*
X12411D1*
X12501D2*
X13937D1*
X14028D2*
X15254D1*
X15403D2*
X15852D1*
X9480Y5715D2*
X10735D1*
X10861D2*
X11584D1*
X12052D2*
X12411D1*
X12501D2*
X13937D1*
X14027D2*
X15254D1*
X15403D2*
X15852D1*
X9479Y5685D2*
X10735D1*
X10857D2*
X11607D1*
X12052D2*
X12411D1*
X12501D2*
X13937D1*
X14027D2*
X15254D1*
X15403D2*
X15852D1*
X9479Y5655D2*
X10735D1*
X10856D2*
X11629D1*
X12052D2*
X12411D1*
X12501D2*
X13937D1*
X14027D2*
X15254D1*
X15403D2*
X15852D1*
X9479Y5625D2*
X10735D1*
X10855D2*
X11647D1*
X12052D2*
X12411D1*
X12501D2*
X13937D1*
X14027D2*
X15254D1*
X15403D2*
X15852D1*
X9479Y5595D2*
X9953D1*
X10855D2*
X11661D1*
X12052D2*
X12411D1*
X12980D2*
X13458D1*
X14027D2*
X14501D1*
X15403D2*
X15852D1*
X9479Y5565D2*
X9945D1*
X10855D2*
X11677D1*
X12052D2*
X12411D1*
X12980D2*
X13458D1*
X14027D2*
X14493D1*
X15404D2*
X15852D1*
X9479Y5535D2*
X9938D1*
X10855D2*
X11695D1*
X12052D2*
X12411D1*
X12980D2*
X13458D1*
X14027D2*
X14484D1*
X15415D2*
X15852D1*
X9479Y5506D2*
X9932D1*
X10855D2*
X11714D1*
X12052D2*
X12411D1*
X12980D2*
X13458D1*
X14027D2*
X14476D1*
X15484D2*
X15852D1*
X9479Y5476D2*
X9930D1*
X10855D2*
X11734D1*
X12052D2*
X12411D1*
X12980D2*
X13457D1*
X15606D2*
X15852D1*
X9479Y5446D2*
X9928D1*
X10855D2*
X11757D1*
X12052D2*
X12411D1*
X12980D2*
X13445D1*
X15762D2*
X15852D1*
X9479Y5416D2*
X10706D1*
X10855D2*
X11780D1*
X12052D2*
X12411D1*
X12980D2*
X13394D1*
X14087D2*
X14476D1*
X9479Y5386D2*
X10706D1*
X10855D2*
X11801D1*
X12052D2*
X12411D1*
X12980D2*
X13313D1*
X14059D2*
X14476D1*
X15403D2*
X15672D1*
X9479Y5356D2*
X10706D1*
X10855D2*
X11214D1*
X11310D2*
X11822D1*
X12052D2*
X12411D1*
X12980D2*
X13211D1*
X14039D2*
X14476D1*
X15403D2*
X15852D1*
X9479Y5326D2*
X10706D1*
X10855D2*
X11214D1*
X11322D2*
X11843D1*
X12052D2*
X12411D1*
X12980D2*
X13099D1*
X13428D2*
X13458D1*
X14032D2*
X15254D1*
X15403D2*
X15852D1*
X9479Y5296D2*
X10706D1*
X10855D2*
X11214D1*
X11341D2*
X11864D1*
X12052D2*
X12411D1*
X13298D2*
X13458D1*
X14029D2*
X15254D1*
X15403D2*
X15852D1*
X9479Y5266D2*
X10706D1*
X10855D2*
X11214D1*
X11362D2*
X11888D1*
X12052D2*
X12411D1*
X13182D2*
X13458D1*
X14028D2*
X15254D1*
X15403D2*
X15852D1*
X9479Y5236D2*
X10706D1*
X10855D2*
X11214D1*
X11383D2*
X11919D1*
X12052D2*
X12411D1*
X13092D2*
X13458D1*
X14027D2*
X15254D1*
X15403D2*
X15852D1*
X9480Y5206D2*
X10706D1*
X10855D2*
X11214D1*
X11403D2*
X11949D1*
X12051D2*
X12411D1*
X13024D2*
X13458D1*
X14027D2*
X15254D1*
X15403D2*
X15852D1*
X9492Y5176D2*
X10706D1*
X10855D2*
X11214D1*
X11424D2*
X11976D1*
X12046D2*
X12411D1*
X12997D2*
X13458D1*
X14027D2*
X15254D1*
X15403D2*
X15852D1*
X9549Y5146D2*
X10706D1*
X10855D2*
X11214D1*
X11445D2*
X11999D1*
X12036D2*
X12411D1*
X12988D2*
X13458D1*
X14027D2*
X15254D1*
X15403D2*
X15852D1*
X9639Y5117D2*
X10706D1*
X10855D2*
X11214D1*
X11470D2*
X12233D1*
X12983D2*
X13458D1*
X14027D2*
X15254D1*
X15403D2*
X15852D1*
X9748Y5087D2*
X9928D1*
X10855D2*
X11214D1*
X11501D2*
X12041D1*
X12981D2*
X13458D1*
X14027D2*
X15254D1*
X15403D2*
X15852D1*
X9479Y5057D2*
X9509D1*
X10855D2*
X11214D1*
X11537D2*
X11828D1*
X12291D2*
X12411D1*
X12980D2*
X13458D1*
X14027D2*
X15254D1*
X15403D2*
X15852D1*
X9479Y5027D2*
X9659D1*
X10855D2*
X11214D1*
X11573D2*
X11603D1*
X12107D2*
X12411D1*
X12980D2*
X13458D1*
X14027D2*
X15254D1*
X15403D2*
X15852D1*
X9479Y4997D2*
X9779D1*
X11917D2*
X12411D1*
X12980D2*
X13458D1*
X14027D2*
X14476D1*
X15403D2*
X15852D1*
X9479Y4967D2*
X9869D1*
X11728D2*
X12411D1*
X12980D2*
X13458D1*
X14027D2*
X14476D1*
X15403D2*
X15852D1*
X9479Y4937D2*
X9905D1*
X11214D2*
D3*
X11543D2*
X12411D1*
X12980D2*
X13458D1*
X14027D2*
X14477D1*
X15403D2*
X15853D1*
X9479Y4907D2*
X9922D1*
X10855D2*
X11214D1*
X11572D2*
X12411D1*
X12980D2*
X13458D1*
X14027D2*
X14481D1*
X15403D2*
X15857D1*
X9479Y4877D2*
X9935D1*
X10855D2*
X11214D1*
X11597D2*
X12411D1*
X12980D2*
X13458D1*
X14027D2*
X14488D1*
X15403D2*
X15864D1*
X9479Y4847D2*
X9946D1*
X10855D2*
X11214D1*
X11616D2*
X12411D1*
X12980D2*
X13458D1*
X14027D2*
X14495D1*
X15403D2*
X15872D1*
X9479Y4817D2*
X9953D1*
X10855D2*
X11214D1*
X11631D2*
X12411D1*
X12980D2*
X13458D1*
X14027D2*
X14501D1*
X15403D2*
X15878D1*
X9479Y4787D2*
X10735D1*
X10855D2*
X11214D1*
X11647D2*
X12411D1*
X12980D2*
X13458D1*
X14027D2*
X15283D1*
X15403D2*
X16690D1*
X9479Y4757D2*
X10735D1*
X10855D2*
X11214D1*
X11665D2*
X12411D1*
X12980D2*
X13458D1*
X14027D2*
X15283D1*
X15403D2*
X16690D1*
X9479Y4728D2*
X10735D1*
X10855D2*
X11214D1*
X11684D2*
X12411D1*
X12980D2*
X13458D1*
X14027D2*
X15283D1*
X15403D2*
X16690D1*
X9479Y4698D2*
X10735D1*
X10855D2*
X11214D1*
X11704D2*
X12411D1*
X12980D2*
X13458D1*
X14027D2*
X15283D1*
X15403D2*
X16690D1*
X9480Y4668D2*
X10735D1*
X10855D2*
X11214D1*
X11727D2*
X12411D1*
X12980D2*
X13458D1*
X14027D2*
X15283D1*
X15403D2*
X16690D1*
X9484Y4638D2*
X10735D1*
X10855D2*
X11214D1*
X11750D2*
X12411D1*
X12980D2*
X13458D1*
X14028D2*
X15283D1*
X15404D2*
X16690D1*
X9492Y4608D2*
X10735D1*
X10855D2*
X11214D1*
X11772D2*
X12411D1*
X12980D2*
X13458D1*
X14033D2*
X15283D1*
X15409D2*
X16690D1*
X9505Y4578D2*
X10735D1*
X10855D2*
X11214D1*
X11795D2*
X12351D1*
X12980D2*
X13458D1*
X14045D2*
X15283D1*
X15422D2*
X16690D1*
X9522Y4548D2*
X10735D1*
X10855D2*
X11214D1*
X11825D2*
X12333D1*
X12980D2*
X13458D1*
X14065D2*
X15283D1*
X15441D2*
X16690D1*
X9544Y4518D2*
X10735D1*
X10855D2*
X11214D1*
X11869D2*
X12302D1*
X12980D2*
X13458D1*
X14090D2*
X15283D1*
X15466D2*
X16690D1*
X9569Y4488D2*
X10735D1*
X10855D2*
X11214D1*
X11927D2*
X12256D1*
X12980D2*
X13458D1*
X14117D2*
X15283D1*
X15493D2*
X16690D1*
X11992Y4458D2*
X12202D1*
X11094Y5954D2*
X11027Y5924D1*
X10972Y5894D1*
X10933Y5865D1*
X10903Y5835D1*
X10889Y5805D1*
X10877Y5775D1*
X10867Y5745D1*
X10861Y5715D1*
X10857Y5685D1*
X10856Y5655D1*
X10855Y5625D1*
Y5595D1*
Y5565D1*
Y5535D1*
Y5506D1*
Y5476D1*
Y5446D1*
Y5416D1*
Y5386D1*
Y5356D1*
Y5326D1*
Y5296D1*
Y5266D1*
Y5236D1*
Y5206D1*
Y5176D1*
Y5146D1*
Y5117D1*
Y5087D1*
Y5057D1*
Y5027D1*
X11304Y5954D2*
X11359Y5924D1*
X11409Y5894D1*
X11452Y5865D1*
X11488Y5835D1*
X11516Y5805D1*
X11541Y5775D1*
X11562Y5745D1*
X11584Y5715D1*
X11607Y5685D1*
X11629Y5655D1*
X11647Y5625D1*
X11661Y5595D1*
X11677Y5565D1*
X11695Y5535D1*
X11714Y5506D1*
X11734Y5476D1*
X11757Y5446D1*
X11780Y5416D1*
X11801Y5386D1*
X11822Y5356D1*
X11843Y5326D1*
X11864Y5296D1*
X11888Y5266D1*
X11919Y5236D1*
X11949Y5206D1*
X11976Y5176D1*
X11999Y5146D1*
X12022Y5117D1*
X9598Y5924D2*
X9559Y5894D1*
X9530Y5865D1*
X9508Y5835D1*
X9494Y5805D1*
X9485Y5775D1*
X9481Y5745D1*
X9480Y5715D1*
X9479Y5685D1*
Y5655D1*
Y5625D1*
Y5595D1*
Y5565D1*
Y5535D1*
Y5506D1*
Y5476D1*
Y5446D1*
Y5416D1*
Y5386D1*
Y5356D1*
Y5326D1*
Y5296D1*
Y5266D1*
Y5236D1*
X9480Y5206D1*
X9492Y5176D1*
X9549Y5146D1*
X9639Y5117D1*
X9748Y5087D1*
X10735Y5924D2*
Y5894D1*
Y5865D1*
Y5835D1*
Y5805D1*
Y5775D1*
Y5745D1*
Y5715D1*
Y5685D1*
Y5655D1*
Y5625D1*
X12052Y5924D2*
Y5894D1*
Y5865D1*
Y5835D1*
Y5805D1*
Y5775D1*
Y5745D1*
Y5715D1*
Y5685D1*
Y5655D1*
Y5625D1*
Y5595D1*
Y5565D1*
Y5535D1*
Y5506D1*
Y5476D1*
Y5446D1*
Y5416D1*
Y5386D1*
Y5356D1*
Y5326D1*
Y5296D1*
Y5266D1*
Y5236D1*
X12051Y5206D1*
X12046Y5176D1*
X12036Y5146D1*
X12022Y5117D1*
X12411Y5924D2*
Y5894D1*
Y5865D1*
Y5835D1*
Y5805D1*
Y5775D1*
Y5745D1*
Y5715D1*
Y5685D1*
Y5655D1*
Y5625D1*
Y5595D1*
Y5565D1*
Y5535D1*
Y5506D1*
Y5476D1*
Y5446D1*
Y5416D1*
Y5386D1*
Y5356D1*
Y5326D1*
Y5296D1*
Y5266D1*
Y5236D1*
Y5206D1*
Y5176D1*
Y5146D1*
X12233Y5117D1*
X12041Y5087D1*
X11828Y5057D1*
X11603Y5027D1*
X12501Y5924D2*
Y5894D1*
Y5865D1*
Y5835D1*
Y5805D1*
Y5775D1*
Y5745D1*
Y5715D1*
Y5685D1*
Y5655D1*
Y5625D1*
X13937Y5924D2*
Y5894D1*
Y5865D1*
Y5835D1*
Y5805D1*
Y5775D1*
Y5745D1*
Y5715D1*
Y5685D1*
Y5655D1*
Y5625D1*
X14117Y5924D2*
X14088Y5894D1*
X14063Y5865D1*
X14045Y5835D1*
X14035Y5805D1*
X14030Y5775D1*
X14028Y5745D1*
X14027Y5715D1*
Y5685D1*
Y5655D1*
Y5625D1*
Y5595D1*
Y5565D1*
Y5535D1*
Y5506D1*
X15254Y5924D2*
Y5894D1*
Y5865D1*
Y5835D1*
Y5805D1*
Y5775D1*
Y5745D1*
Y5715D1*
Y5685D1*
Y5655D1*
Y5625D1*
X15403Y5924D2*
Y5894D1*
Y5865D1*
Y5835D1*
Y5805D1*
Y5775D1*
Y5745D1*
Y5715D1*
Y5685D1*
Y5655D1*
Y5625D1*
Y5595D1*
X15404Y5565D1*
X15415Y5535D1*
X15484Y5506D1*
X15606Y5476D1*
X15762Y5446D1*
X15852Y5924D2*
Y5894D1*
Y5865D1*
Y5835D1*
Y5805D1*
Y5775D1*
Y5745D1*
Y5715D1*
Y5685D1*
Y5655D1*
Y5625D1*
Y5595D1*
Y5565D1*
Y5535D1*
Y5506D1*
Y5476D1*
Y5446D1*
X9957Y5625D2*
X9953Y5595D1*
X9945Y5565D1*
X9938Y5535D1*
X9932Y5506D1*
X9930Y5476D1*
X9928Y5446D1*
Y5416D1*
X12980Y5625D2*
Y5595D1*
Y5565D1*
Y5535D1*
Y5506D1*
Y5476D1*
Y5446D1*
Y5416D1*
Y5386D1*
Y5356D1*
Y5326D1*
X13458Y5625D2*
Y5595D1*
Y5565D1*
Y5535D1*
Y5506D1*
X13457Y5476D1*
X13445Y5446D1*
X13394Y5416D1*
X13313Y5386D1*
X13211Y5356D1*
X13099Y5326D1*
X14506Y5625D2*
X14501Y5595D1*
X14493Y5565D1*
X14484Y5535D1*
X14476Y5506D1*
X10706Y5416D2*
Y5386D1*
Y5356D1*
Y5326D1*
Y5296D1*
Y5266D1*
Y5236D1*
Y5206D1*
Y5176D1*
Y5146D1*
Y5117D1*
X14087Y5416D2*
X14059Y5386D1*
X14039Y5356D1*
X14032Y5326D1*
X14029Y5296D1*
X14028Y5266D1*
X14027Y5236D1*
Y5206D1*
Y5176D1*
Y5146D1*
Y5117D1*
Y5087D1*
Y5057D1*
Y5027D1*
Y4997D1*
Y4967D1*
Y4937D1*
Y4907D1*
Y4877D1*
Y4847D1*
Y4817D1*
Y4787D1*
Y4757D1*
Y4728D1*
Y4698D1*
Y4668D1*
X14028Y4638D1*
X14033Y4608D1*
X14045Y4578D1*
X14065Y4548D1*
X14090Y4518D1*
X14117Y4488D1*
X14476Y5416D2*
Y5386D1*
Y5356D1*
Y5326D1*
X15403Y5386D2*
Y5356D1*
Y5326D1*
Y5296D1*
Y5266D1*
Y5236D1*
Y5206D1*
Y5176D1*
Y5146D1*
Y5117D1*
Y5087D1*
Y5057D1*
Y5027D1*
Y4997D1*
Y4967D1*
Y4937D1*
Y4907D1*
Y4877D1*
Y4847D1*
Y4817D1*
Y4787D1*
Y4757D1*
Y4728D1*
Y4698D1*
Y4668D1*
X15404Y4638D1*
X15409Y4608D1*
X15422Y4578D1*
X15441Y4548D1*
X15466Y4518D1*
X15493Y4488D1*
X15672Y5386D2*
X15852Y5356D1*
Y5326D1*
Y5296D1*
Y5266D1*
Y5236D1*
Y5206D1*
Y5176D1*
Y5146D1*
Y5117D1*
Y5087D1*
Y5057D1*
Y5027D1*
Y4997D1*
Y4967D1*
X15853Y4937D1*
X15857Y4907D1*
X15864Y4877D1*
X15872Y4847D1*
X15878Y4817D1*
X15882Y4787D1*
X11214Y5386D2*
Y5356D1*
Y5326D1*
Y5296D1*
Y5266D1*
Y5236D1*
Y5206D1*
Y5176D1*
Y5146D1*
Y5117D1*
Y5087D1*
Y5057D1*
Y5027D1*
X11304Y5386D2*
X11310Y5356D1*
X11322Y5326D1*
X11341Y5296D1*
X11362Y5266D1*
X11383Y5236D1*
X11403Y5206D1*
X11424Y5176D1*
X11445Y5146D1*
X11470Y5117D1*
X11501Y5087D1*
X11537Y5057D1*
X11573Y5027D1*
X13428Y5326D2*
X13298Y5296D1*
X13182Y5266D1*
X13092Y5236D1*
X13024Y5206D1*
X12997Y5176D1*
X12988Y5146D1*
X12983Y5117D1*
X12981Y5087D1*
X12980Y5057D1*
Y5027D1*
Y4997D1*
Y4967D1*
Y4937D1*
Y4907D1*
Y4877D1*
Y4847D1*
Y4817D1*
Y4787D1*
Y4757D1*
Y4728D1*
Y4698D1*
Y4668D1*
Y4638D1*
Y4608D1*
Y4578D1*
Y4548D1*
Y4518D1*
Y4488D1*
X13458Y5326D2*
Y5296D1*
Y5266D1*
Y5236D1*
Y5206D1*
Y5176D1*
Y5146D1*
Y5117D1*
Y5087D1*
Y5057D1*
Y5027D1*
Y4997D1*
Y4967D1*
Y4937D1*
Y4907D1*
Y4877D1*
Y4847D1*
Y4817D1*
Y4787D1*
Y4757D1*
Y4728D1*
Y4698D1*
Y4668D1*
Y4638D1*
Y4608D1*
Y4578D1*
Y4548D1*
Y4518D1*
Y4488D1*
X15254Y5326D2*
Y5296D1*
Y5266D1*
Y5236D1*
Y5206D1*
Y5176D1*
Y5146D1*
Y5117D1*
Y5087D1*
Y5057D1*
Y5027D1*
X9957Y5117D2*
X9928Y5087D1*
X9479Y5057D2*
Y5027D1*
Y4997D1*
Y4967D1*
Y4937D1*
Y4907D1*
Y4877D1*
Y4847D1*
Y4817D1*
Y4787D1*
Y4757D1*
Y4728D1*
Y4698D1*
X9480Y4668D1*
X9484Y4638D1*
X9492Y4608D1*
X9505Y4578D1*
X9522Y4548D1*
X9544Y4518D1*
X9569Y4488D1*
X9509Y5057D2*
X9659Y5027D1*
X9779Y4997D1*
X9869Y4967D1*
X9905Y4937D1*
X9922Y4907D1*
X9935Y4877D1*
X9946Y4847D1*
X9953Y4817D1*
X9957Y4787D1*
X12291Y5057D2*
X12107Y5027D1*
X11917Y4997D1*
X11728Y4967D1*
X11543Y4937D1*
X11572Y4907D1*
X11597Y4877D1*
X11616Y4847D1*
X11631Y4817D1*
X11647Y4787D1*
X11665Y4757D1*
X11684Y4728D1*
X11704Y4698D1*
X11727Y4668D1*
X11750Y4638D1*
X11772Y4608D1*
X11795Y4578D1*
X11825Y4548D1*
X11869Y4518D1*
X11927Y4488D1*
X11992Y4458D1*
X12411Y5057D2*
Y5027D1*
Y4997D1*
Y4967D1*
Y4937D1*
Y4907D1*
Y4877D1*
Y4847D1*
Y4817D1*
Y4787D1*
Y4757D1*
Y4728D1*
Y4698D1*
Y4668D1*
Y4638D1*
Y4608D1*
Y4578D1*
X12351D1*
X12333Y4548D1*
X12302Y4518D1*
X12256Y4488D1*
X12202Y4458D1*
X14476Y5027D2*
Y4997D1*
Y4967D1*
X14477Y4937D1*
X14481Y4907D1*
X14488Y4877D1*
X14495Y4847D1*
X14501Y4817D1*
X14506Y4787D1*
X11214Y4937D2*
Y4907D1*
X10855D2*
Y4877D1*
Y4847D1*
Y4817D1*
Y4787D1*
Y4757D1*
Y4728D1*
Y4698D1*
Y4668D1*
Y4638D1*
Y4608D1*
Y4578D1*
Y4548D1*
Y4518D1*
Y4488D1*
X11214Y4907D2*
Y4877D1*
Y4847D1*
Y4817D1*
Y4787D1*
Y4757D1*
Y4728D1*
Y4698D1*
Y4668D1*
Y4638D1*
Y4608D1*
Y4578D1*
Y4548D1*
Y4518D1*
Y4488D1*
X10735Y4787D2*
Y4757D1*
Y4728D1*
Y4698D1*
Y4668D1*
Y4638D1*
Y4608D1*
Y4578D1*
Y4548D1*
Y4518D1*
Y4488D1*
X15283Y4787D2*
Y4757D1*
Y4728D1*
Y4698D1*
Y4668D1*
Y4638D1*
Y4608D1*
Y4578D1*
Y4548D1*
Y4518D1*
Y4488D1*
X16690Y4787D2*
Y4757D1*
Y4728D1*
Y4698D1*
Y4668D1*
Y4638D1*
Y4608D1*
Y4578D1*
Y4548D1*
Y4518D1*
Y4488D1*
X24328Y15125D2*
D104*
Y14623D1*
X24544D1*
X24616Y14647D1*
X24639Y14671D1*
X24663Y14718D1*
Y14790D1*
X24639Y14838D1*
X24616Y14862D1*
X24544Y14886D1*
X24616Y14910D1*
X24639Y14934D1*
X24663Y14982D1*
Y15030D1*
X24639Y15077D1*
X24616Y15102D1*
X24544Y15125D1*
X24328D1*
Y14886D2*
X24544D1*
X24818Y15029D2*
X24866Y15053D1*
X24938Y15125D1*
Y14623D1*
X25368Y10963D2*
X25344Y11011D1*
X25296Y11059D1*
X25249Y11083D1*
X25153D1*
X25105Y11059D1*
X25057Y11011D1*
X25033Y10963D1*
X25009Y10891D1*
Y10771D1*
X25033Y10700D1*
X25057Y10652D1*
X25105Y10605D1*
X25153Y10580D1*
X25249D1*
X25296Y10605D1*
X25344Y10652D1*
X25368Y10700D1*
X25522Y10986D2*
X25570Y11011D1*
X25642Y11082D1*
Y10580D1*
X26249Y9076D2*
X26225Y9123D1*
X26177Y9172D1*
X26130Y9195D1*
X26034D1*
X25986Y9172D1*
X25939Y9123D1*
X25914Y9076D1*
X25890Y9004D1*
Y8884D1*
X25914Y8813D1*
X25939Y8765D1*
X25986Y8717D1*
X26034Y8693D1*
X26130D1*
X26177Y8717D1*
X26225Y8765D1*
X26249Y8813D1*
X26428Y9075D2*
Y9099D1*
X26452Y9147D1*
X26475Y9171D1*
X26523Y9195D1*
X26619D1*
X26667Y9171D1*
X26690Y9147D1*
X26715Y9099D1*
Y9052D1*
X26690Y9004D1*
X26643Y8932D1*
X26404Y8693D1*
X26738D1*
X31970Y14747D2*
X31946Y14794D1*
X31898Y14842D1*
X31851Y14866D1*
X31755D1*
X31707Y14842D1*
X31659Y14794D1*
X31635Y14747D1*
X31611Y14675D1*
Y14555D1*
X31635Y14484D1*
X31659Y14436D1*
X31707Y14388D1*
X31755Y14364D1*
X31851D1*
X31898Y14388D1*
X31946Y14436D1*
X31970Y14484D1*
X32364Y14364D2*
Y14866D1*
X32124Y14531D1*
X32483D1*
X16105Y10050D2*
X16081Y10097D1*
X16033Y10145D1*
X15986Y10169D1*
X15890D1*
X15842Y10145D1*
X15794Y10097D1*
X15770Y10050D1*
X15746Y9978D1*
Y9858D1*
X15770Y9787D1*
X15794Y9739D1*
X15842Y9691D1*
X15890Y9667D1*
X15986D1*
X16033Y9691D1*
X16081Y9739D1*
X16105Y9787D1*
X16546Y10169D2*
X16307D1*
X16284Y9954D1*
X16307Y9977D1*
X16379Y10002D1*
X16451D1*
X16522Y9977D1*
X16571Y9930D1*
X16594Y9858D1*
Y9810D1*
X16571Y9739D1*
X16522Y9690D1*
X16451Y9667D1*
X16379D1*
X16307Y9690D1*
X16284Y9715D1*
X16259Y9762D1*
X16130Y13157D2*
X16106Y13205D1*
X16058Y13253D1*
X16011Y13277D1*
X15915D1*
X15867Y13253D1*
X15820Y13205D1*
X15795Y13157D1*
X15771Y13086D1*
Y12966D1*
X15795Y12894D1*
X15820Y12846D1*
X15867Y12799D1*
X15915Y12774D1*
X16011D1*
X16058Y12799D1*
X16106Y12846D1*
X16130Y12894D1*
X16380Y12774D2*
X16619Y13276D1*
X16285D1*
X32203Y5717D2*
X32179Y5764D1*
X32131Y5812D1*
X32083Y5836D1*
X31988D1*
X31940Y5812D1*
X31892Y5764D1*
X31868Y5717D1*
X31844Y5645D1*
Y5525D1*
X31868Y5454D1*
X31892Y5406D1*
X31940Y5358D1*
X31988Y5334D1*
X32083D1*
X32131Y5358D1*
X32179Y5406D1*
X32203Y5454D1*
X32357Y5740D2*
X32405Y5764D1*
X32477Y5836D1*
Y5334D1*
X32775Y5836D2*
X32703Y5812D1*
X32655Y5740D1*
X32631Y5621D1*
Y5549D1*
X32655Y5429D1*
X32703Y5357D1*
X32775Y5334D1*
X32823D1*
X32894Y5357D1*
X32942Y5429D1*
X32966Y5549D1*
Y5621D1*
X32942Y5740D1*
X32894Y5812D1*
X32823Y5836D1*
X32775D1*
X32942Y5740D2*
X32655Y5429D1*
X32424Y11581D2*
X32400Y11629D1*
X32352Y11677D1*
X32304Y11700D1*
X32209D1*
X32161Y11677D1*
X32113Y11629D1*
X32089Y11581D1*
X32065Y11509D1*
Y11389D1*
X32089Y11318D1*
X32113Y11270D1*
X32161Y11222D1*
X32209Y11198D1*
X32304D1*
X32352Y11222D1*
X32400Y11270D1*
X32424Y11318D1*
X32578Y11604D2*
X32626Y11629D1*
X32698Y11700D1*
Y11198D1*
X32852Y11604D2*
X32901Y11629D1*
X32972Y11700D1*
Y11198D1*
X29383Y4517D2*
X29359Y4565D1*
X29311Y4613D1*
X29263Y4637D1*
X29168D1*
X29120Y4613D1*
X29072Y4565D1*
X29048Y4517D1*
X29024Y4446D1*
Y4326D1*
X29048Y4254D1*
X29072Y4206D1*
X29120Y4159D1*
X29168Y4134D1*
X29263D1*
X29311Y4159D1*
X29359Y4206D1*
X29383Y4254D1*
X29537Y4541D2*
X29585Y4565D1*
X29657Y4636D1*
Y4134D1*
X29836Y4517D2*
Y4541D1*
X29859Y4589D1*
X29883Y4612D1*
X29931Y4636D1*
X30027D1*
X30074Y4612D1*
X30098Y4589D1*
X30123Y4541D1*
Y4493D1*
X30098Y4445D1*
X30051Y4374D1*
X29811Y4134D1*
X30146D1*
X29364Y13594D2*
X29340Y13642D1*
X29292Y13690D1*
X29245Y13713D1*
X29149D1*
X29101Y13690D1*
X29054Y13642D1*
X29029Y13594D1*
X29005Y13522D1*
Y13402D1*
X29029Y13331D1*
X29054Y13283D1*
X29101Y13235D1*
X29149Y13211D1*
X29245D1*
X29292Y13235D1*
X29340Y13283D1*
X29364Y13331D1*
X29519Y13617D2*
X29567Y13642D1*
X29638Y13713D1*
Y13211D1*
X29841Y13713D2*
X30103D1*
X29960Y13522D1*
X30032D1*
X30080Y13498D1*
X30103Y13474D1*
X30128Y13402D1*
Y13355D1*
X30103Y13283D1*
X30056Y13235D1*
X29984Y13211D1*
X29912D1*
X29841Y13235D1*
X29817Y13259D1*
X29793Y13307D1*
X4336Y6732D2*
Y6229D1*
X4504D1*
X4575Y6254D1*
X4624Y6301D1*
X4647Y6349D1*
X4671Y6421D1*
Y6541D1*
X4647Y6612D1*
X4624Y6660D1*
X4575Y6708D1*
X4504Y6732D1*
X4336D1*
X4825Y6636D2*
X4874Y6660D1*
X4945Y6731D1*
Y6229D1*
X4354Y14482D2*
Y13979D1*
X4521D1*
X4593Y14004D1*
X4641Y14051D1*
X4665Y14099D1*
X4689Y14170D1*
Y14290D1*
X4665Y14362D1*
X4641Y14410D1*
X4593Y14458D1*
X4521Y14482D1*
X4354D1*
X4867Y14362D2*
Y14385D1*
X4891Y14434D1*
X4915Y14457D1*
X4963Y14481D1*
X5058D1*
X5106Y14457D1*
X5130Y14434D1*
X5154Y14385D1*
Y14338D1*
X5130Y14290D1*
X5082Y14219D1*
X4843Y13979D1*
X5178D1*
X28001Y5607D2*
Y5224D1*
X27977Y5152D1*
X27953Y5129D1*
X27905Y5104D1*
X27857D1*
X27810Y5129D1*
X27786Y5152D1*
X27762Y5224D1*
Y5272D1*
X28155Y5511D2*
X28204Y5535D1*
X28275Y5606D1*
Y5104D1*
X36681Y10613D2*
Y10231D1*
X36657Y10159D1*
X36633Y10135D1*
X36585Y10111D1*
X36537D1*
X36490Y10135D1*
X36466Y10159D1*
X36442Y10231D1*
Y10278D1*
X36860Y10493D2*
Y10517D1*
X36883Y10565D1*
X36907Y10589D1*
X36955Y10613D1*
X37051D1*
X37098Y10589D1*
X37122Y10565D1*
X37146Y10517D1*
Y10469D1*
X37122Y10421D1*
X37075Y10350D1*
X36835Y10111D1*
X37170D1*
X8197Y10666D2*
Y10284D1*
X8173Y10212D1*
X8149Y10188D1*
X8101Y10164D1*
X8053D1*
X8006Y10188D1*
X7982Y10212D1*
X7958Y10284D1*
Y10331D1*
X8399Y10666D2*
X8662D1*
X8519Y10475D1*
X8591D1*
X8638Y10451D1*
X8662Y10427D1*
X8686Y10355D1*
Y10308D1*
X8662Y10236D1*
X8614Y10188D1*
X8542Y10164D1*
X8471D1*
X8399Y10188D1*
X8376Y10212D1*
X8351Y10260D1*
X16934Y6547D2*
Y6165D1*
X16910Y6093D1*
X16886Y6069D1*
X16838Y6045D1*
X16790D1*
X16743Y6069D1*
X16719Y6093D1*
X16695Y6165D1*
Y6212D1*
X17328Y6045D2*
Y6547D1*
X17088Y6212D1*
X17447D1*
X18891Y10681D2*
Y10299D1*
X18867Y10227D1*
X18843Y10203D1*
X18795Y10179D1*
X18747D1*
X18700Y10203D1*
X18676Y10227D1*
X18652Y10299D1*
Y10346D1*
X19332Y10609D2*
X19309Y10657D1*
X19237Y10680D1*
X19189D1*
X19117Y10657D1*
X19069Y10585D1*
X19045Y10465D1*
Y10346D1*
X19069Y10250D1*
X19117Y10202D1*
X19189Y10179D1*
X19213D1*
X19284Y10202D1*
X19332Y10250D1*
X19356Y10322D1*
Y10346D1*
X19332Y10418D1*
X19284Y10465D1*
X19213Y10489D1*
X19189D1*
X19117Y10465D1*
X19069Y10418D1*
X19045Y10346D1*
X8050Y6812D2*
X8265D1*
X8337Y6837D1*
X8361Y6860D1*
X8385Y6908D1*
Y6956D1*
X8361Y7004D1*
X8337Y7028D1*
X8265Y7052D1*
X8050D1*
Y6549D1*
X8217Y6812D2*
X8385Y6549D1*
X8779D2*
Y7051D1*
X8539Y6717D1*
X8898D1*
X8187Y13906D2*
X8402D1*
X8474Y13931D1*
X8498Y13954D1*
X8522Y14002D1*
Y14050D1*
X8498Y14098D1*
X8474Y14122D1*
X8402Y14146D1*
X8187D1*
Y13643D1*
X8354Y13906D2*
X8522Y13643D1*
X8963Y14145D2*
X8724D1*
X8700Y13930D1*
X8724Y13954D1*
X8796Y13978D1*
X8867D1*
X8939Y13954D1*
X8987Y13906D1*
X9011Y13834D1*
Y13787D1*
X8987Y13715D1*
X8939Y13667D1*
X8867Y13643D1*
X8796D1*
X8724Y13667D1*
X8700Y13691D1*
X8676Y13739D1*
X30369Y11427D2*
Y11068D1*
X30393Y10996D1*
X30441Y10949D1*
X30513Y10925D1*
X30561D1*
X30632Y10949D1*
X30681Y10996D1*
X30704Y11068D1*
Y11427D1*
X30883Y11307D2*
Y11331D1*
X30907Y11379D1*
X30931Y11403D1*
X30979Y11426D1*
X31074D1*
X31122Y11403D1*
X31146Y11379D1*
X31170Y11331D1*
Y11283D1*
X31146Y11235D1*
X31098Y11164D1*
X30859Y10925D1*
X31194D1*
X10434Y12487D2*
Y12129D1*
X10458Y12057D1*
X10506Y12009D1*
X10578Y11985D1*
X10626D1*
X10697Y12009D1*
X10746Y12057D1*
X10769Y12129D1*
Y12487D1*
X11043D2*
X10972Y12463D1*
X10947Y12416D1*
Y12367D1*
X10972Y12320D1*
X11019Y12296D1*
X11115Y12272D1*
X11187Y12248D1*
X11234Y12200D1*
X11258Y12152D1*
Y12081D1*
X11234Y12033D1*
X11211Y12009D1*
X11139Y11985D1*
X11043D1*
X10972Y12009D1*
X10947Y12033D1*
X10924Y12081D1*
Y12152D1*
X10947Y12200D1*
X10996Y12248D1*
X11067Y12272D1*
X11162Y12296D1*
X11211Y12320D1*
X11234Y12367D1*
Y12416D1*
X11211Y12463D1*
X11139Y12487D1*
X11043D1*
X23312Y10555D2*
X23504Y10315D1*
Y10052D1*
X23695Y10555D2*
X23504Y10315D1*
X23849Y10458D2*
X23897Y10483D1*
X23969Y10554D1*
Y10052D1*
X27886Y14820D2*
X28077Y14581D1*
Y14318D1*
X28268Y14820D2*
X28077Y14581D1*
X28447Y14700D2*
Y14724D1*
X28471Y14772D1*
X28495Y14796D1*
X28543Y14820D1*
X28638D1*
X28686Y14796D1*
X28710Y14772D1*
X28734Y14724D1*
Y14677D1*
X28710Y14629D1*
X28662Y14557D1*
X28423Y14318D1*
X28758D1*
X5791Y13647D2*
D37*
Y12786D1*
X5361Y13216D2*
X6222D1*
X5684Y7464D2*
Y8016D1*
X21750Y5988D2*
D105*
X22152D1*
Y6122D1*
X22132Y6179D1*
X22094Y6218D1*
X22056Y6237D1*
X21999Y6256D1*
X21903D1*
X21845Y6237D1*
X21807Y6218D1*
X21769Y6179D1*
X21750Y6122D1*
Y5988D1*
Y6513D2*
X22152D1*
X21750Y6379D2*
Y6647D1*
X21941Y6771D2*
Y6943D1*
X21922Y7000D1*
X21903Y7020D1*
X21865Y7039D1*
X21826D1*
X21788Y7020D1*
X21769Y7000D1*
X21750Y6943D1*
Y6771D1*
X22152D1*
X21941Y6905D2*
X22152Y7039D1*
X22925Y5988D2*
Y6160D1*
X22906Y6217D1*
X22887Y6237D1*
X22849Y6256D1*
X22810D1*
X22772Y6237D1*
X22753Y6217D1*
X22734Y6160D1*
Y5988D1*
X23136D1*
X22925Y6122D2*
X23136Y6256D1*
X22734Y6379D2*
X23136Y6647D1*
X22734D2*
X23136Y6379D1*
X23718Y6122D2*
X24120D1*
X23718Y5988D2*
Y6256D1*
Y6379D2*
X24120Y6647D1*
X23718D2*
X24120Y6379D1*
X24742Y6217D2*
Y6026D1*
X24914Y6007D1*
X24895Y6026D1*
X24876Y6084D1*
Y6141D1*
X24895Y6198D1*
X24933Y6237D1*
X24991Y6256D1*
X25029D1*
X25086Y6237D1*
X25125Y6198D1*
X25144Y6141D1*
Y6084D1*
X25125Y6026D1*
X25105Y6007D1*
X25067Y5988D1*
X24742Y6379D2*
X25144Y6532D1*
X24742Y6685D1*
X26838Y6275D2*
X26800Y6256D1*
X26762Y6217D1*
X26743Y6179D1*
Y6103D1*
X26762Y6064D1*
X26800Y6026D1*
X26838Y6007D1*
X26896Y5988D1*
X26992D1*
X27049Y6007D1*
X27087Y6026D1*
X27125Y6064D1*
X27145Y6103D1*
Y6179D1*
X27125Y6217D1*
X27087Y6256D1*
X27049Y6275D1*
X26992D1*
Y6179D1*
X26743Y6666D2*
X27145D1*
X26743Y6398D1*
X27145D1*
X26743Y6790D2*
X27145D1*
Y6924D1*
X27125Y6981D1*
X27087Y7020D1*
X27049Y7039D1*
X26992Y7058D1*
X26896D1*
X26838Y7039D1*
X26800Y7020D1*
X26762Y6981D1*
X26743Y6924D1*
Y6790D1*
X26004Y16175D2*
D107*
X26349D1*
X26463Y16213D1*
X26502Y16252D1*
X26540Y16328D1*
Y16443D1*
X26502Y16519D1*
X26463Y16558D1*
X26349Y16596D1*
X26004D1*
Y15792D1*
X27246Y16328D2*
Y15792D1*
Y16213D2*
X27170Y16290D1*
X27093Y16328D1*
X26979D1*
X26902Y16290D1*
X26826Y16213D1*
X26787Y16098D1*
Y16022D1*
X26826Y15907D1*
X26902Y15831D1*
X26979Y15792D1*
X27093D1*
X27170Y15831D1*
X27246Y15907D1*
X27552Y16328D2*
Y15792D1*
X27835Y16328D2*
Y15792D1*
X27552Y16328D2*
X27835D1*
X27493Y15792D2*
X27894D1*
X27493D2*
Y15739D1*
X27894Y15792D2*
Y15739D1*
X28180Y16328D2*
X28409Y15792D1*
X28333Y15639D1*
X28256Y15562D1*
X28180Y15524D1*
X28141D1*
X28639Y16328D2*
X28409Y15792D1*
X29259Y16328D2*
X28886D1*
Y15792D1*
X29965Y16328D2*
Y15792D1*
Y16213D2*
X29889Y16290D1*
X29812Y16328D1*
X29698D1*
X29621Y16290D1*
X29545Y16213D1*
X29506Y16098D1*
Y16022D1*
X29545Y15907D1*
X29621Y15831D1*
X29698Y15792D1*
X29812D1*
X29889Y15831D1*
X29965Y15907D1*
X30212Y16194D2*
X30655D1*
X31514Y15792D2*
Y16596D1*
X31208Y15792D1*
X30902Y16596D1*
Y15792D1*
X9985Y15891D2*
D104*
Y16394D1*
X9794Y15891D1*
X9603Y16394D1*
Y15891D1*
X10140Y16131D2*
X10355D1*
X10426Y16154D1*
X10451Y16179D1*
X10475Y16226D1*
Y16298D1*
X10451Y16346D1*
X10426Y16370D1*
X10355Y16394D1*
X10140D1*
Y15891D1*
X10629Y16394D2*
Y15891D1*
X10964Y16394D2*
X10629Y16059D1*
X10748Y16179D2*
X10964Y15891D1*
X11429Y16394D2*
X11118D1*
Y15891D1*
X11429D1*
X11118Y16154D2*
X11309D1*
X11607Y15939D2*
X11583Y15915D1*
X11607Y15891D1*
X11631Y15915D1*
X11607Y15939D1*
X12025Y15891D2*
Y16393D1*
X11786Y16059D1*
X12144D1*
X12323Y16274D2*
Y16298D1*
X12347Y16346D1*
X12371Y16369D1*
X12419Y16393D1*
X12514D1*
X12562Y16369D1*
X12586Y16346D1*
X12610Y16298D1*
Y16250D1*
X12586Y16202D1*
X12538Y16131D1*
X12299Y15891D1*
X12634D1*
X13027D2*
Y16393D1*
X12788Y16059D1*
X13147D1*
X13541Y15891D2*
Y16393D1*
X13301Y16059D1*
X13660D1*
X14101Y16393D2*
X13862D1*
X13839Y16178D1*
X13862Y16202D1*
X13934Y16226D1*
X14006D1*
X14077Y16202D1*
X14126Y16154D1*
X14149Y16083D1*
Y16035D1*
X14126Y15963D1*
X14077Y15915D1*
X14006Y15891D1*
X13934D1*
X13862Y15915D1*
X13839Y15939D1*
X13814Y15987D1*
X14304Y16298D2*
X14352Y16322D1*
X14424Y16393D1*
Y15891D1*
X14602Y15939D2*
X14578Y15915D1*
X14602Y15891D1*
X14626Y15915D1*
X14602Y15939D1*
X14924Y16393D2*
X14852Y16369D1*
X14804Y16298D1*
X14780Y16178D1*
Y16106D1*
X14804Y15987D1*
X14852Y15915D1*
X14924Y15891D1*
X14972D1*
X15044Y15915D1*
X15091Y15987D1*
X15115Y16106D1*
Y16178D1*
X15091Y16298D1*
X15044Y16369D1*
X14972Y16393D1*
X14924D1*
X15091Y16298D2*
X14804Y15987D1*
X15413Y16393D2*
X15342Y16369D1*
X15294Y16298D1*
X15270Y16178D1*
Y16106D1*
X15294Y15987D1*
X15342Y15915D1*
X15413Y15891D1*
X15461D1*
X15533Y15915D1*
X15580Y15987D1*
X15605Y16106D1*
Y16178D1*
X15580Y16298D1*
X15533Y16369D1*
X15461Y16393D1*
X15413D1*
X15580Y16298D2*
X15294Y15987D1*
X15783Y16274D2*
Y16298D1*
X15807Y16346D1*
X15831Y16369D1*
X15879Y16393D1*
X15975D1*
X16022Y16369D1*
X16046Y16346D1*
X16070Y16298D1*
Y16250D1*
X16046Y16202D1*
X15998Y16131D1*
X15759Y15891D1*
X16094D1*
X20179Y7753D2*
D108*
X20151Y7739D1*
X20122Y7710D1*
X20107Y7682D1*
Y7624D1*
X20122Y7595D1*
X20151Y7567D1*
X20179Y7552D1*
X20222Y7538D1*
X20294D1*
X20337Y7552D1*
X20366Y7567D1*
X20394Y7595D1*
X20409Y7624D1*
Y7682D1*
X20394Y7710D1*
X20366Y7739D1*
X20337Y7753D1*
X20294D1*
Y7682D1*
X20107Y8047D2*
X20409D1*
X20107Y7846D1*
X20409D1*
X20107Y8139D2*
X20409D1*
Y8240D1*
X20394Y8283D1*
X20366Y8312D1*
X20337Y8326D1*
X20294Y8340D1*
X20222D1*
X20179Y8326D1*
X20151Y8312D1*
X20122Y8283D1*
X20107Y8240D1*
Y8139D1*
X20175Y4293D2*
D105*
Y4465D1*
X20156Y4523D1*
X20137Y4542D1*
X20099Y4561D1*
X20060D1*
X20022Y4542D1*
X20003Y4523D1*
X19984Y4465D1*
Y4293D1*
X20386D1*
X20175Y4427D2*
X20386Y4561D1*
X20041Y4953D2*
X20003Y4915D1*
X19984Y4857D1*
Y4781D1*
X20003Y4723D1*
X20041Y4685D1*
X20079D1*
X20118Y4704D1*
X20137Y4723D1*
X20156Y4761D1*
X20194Y4876D1*
X20213Y4915D1*
X20233Y4934D1*
X20271Y4953D1*
X20328D1*
X20366Y4915D1*
X20386Y4857D1*
Y4781D1*
X20366Y4723D1*
X20328Y4685D1*
X19984Y5210D2*
X20386D1*
X19984Y5076D2*
Y5344D1*
X19111Y4522D2*
X19072Y4484D1*
X19053Y4426D1*
Y4350D1*
X19072Y4292D1*
X19111Y4254D1*
X19149D1*
X19187Y4273D1*
X19206Y4292D1*
X19225Y4330D1*
X19264Y4445D1*
X19283Y4484D1*
X19302Y4503D1*
X19340Y4522D1*
X19398D1*
X19436Y4484D1*
X19455Y4426D1*
Y4350D1*
X19436Y4292D1*
X19398Y4254D1*
X19149Y4932D2*
X19111Y4913D1*
X19072Y4875D1*
X19053Y4837D1*
Y4760D1*
X19072Y4722D1*
X19111Y4684D1*
X19149Y4664D1*
X19206Y4645D1*
X19302D1*
X19359Y4664D1*
X19398Y4684D1*
X19436Y4722D1*
X19455Y4760D1*
Y4837D1*
X19436Y4875D1*
X19398Y4913D1*
X19359Y4932D1*
X19053Y5056D2*
X19455D1*
X19053Y5324D2*
X19321Y5056D1*
X19225Y5151D2*
X19455Y5324D1*
X18407Y4402D2*
X18005D1*
X18407Y4249D1*
X18005Y4096D1*
X18407D1*
X18005Y4526D2*
X18407D1*
X18062Y4917D2*
X18024Y4879D1*
X18005Y4822D1*
Y4745D1*
X18024Y4688D1*
X18062Y4649D1*
X18100D1*
X18139Y4669D1*
X18158Y4688D1*
X18177Y4726D1*
X18215Y4841D1*
X18234Y4879D1*
X18254Y4898D1*
X18292Y4917D1*
X18349D1*
X18387Y4879D1*
X18407Y4822D1*
Y4745D1*
X18387Y4688D1*
X18349Y4649D1*
X18005Y5156D2*
X18024Y5117D1*
X18062Y5079D1*
X18100Y5060D1*
X18158Y5041D1*
X18254D1*
X18311Y5060D1*
X18349Y5079D1*
X18387Y5117D1*
X18407Y5156D1*
Y5232D1*
X18387Y5270D1*
X18349Y5309D1*
X18311Y5328D1*
X18254Y5347D1*
X18158D1*
X18100Y5328D1*
X18062Y5309D1*
X18024Y5270D1*
X18005Y5232D1*
Y5156D1*
X19400Y7807D2*
D108*
X19098D1*
X19400Y7692D1*
X19098Y7577D1*
X19400D1*
X19098Y7986D2*
X19112Y7957D1*
X19141Y7928D1*
X19170Y7914D1*
X19213Y7900D1*
X19285D1*
X19328Y7914D1*
X19356Y7928D1*
X19385Y7957D1*
X19400Y7986D1*
Y8043D1*
X19385Y8072D1*
X19356Y8100D1*
X19328Y8115D1*
X19285Y8129D1*
X19213D1*
X19170Y8115D1*
X19141Y8100D1*
X19112Y8072D1*
X19098Y8043D1*
Y7986D1*
X19141Y8423D2*
X19112Y8394D1*
X19098Y8351D1*
Y8294D1*
X19112Y8250D1*
X19141Y8222D1*
X19170D1*
X19199Y8236D1*
X19213Y8250D1*
X19227Y8279D1*
X19256Y8365D1*
X19270Y8394D1*
X19285Y8408D1*
X19313Y8423D1*
X19356D1*
X19385Y8394D1*
X19400Y8351D1*
Y8294D1*
X19385Y8250D1*
X19356Y8222D1*
X19098Y8515D2*
X19400D1*
X18089Y7577D2*
X18390Y7692D1*
X18089Y7807D1*
X18160Y8115D2*
X18132Y8100D1*
X18103Y8072D1*
X18089Y8043D1*
Y7986D1*
X18103Y7957D1*
X18132Y7928D1*
X18160Y7914D1*
X18204Y7900D1*
X18275D1*
X18318Y7914D1*
X18347Y7928D1*
X18376Y7957D1*
X18390Y7986D1*
Y8043D1*
X18376Y8072D1*
X18347Y8100D1*
X18318Y8115D1*
X18160Y8423D2*
X18132Y8408D1*
X18103Y8379D1*
X18089Y8351D1*
Y8294D1*
X18103Y8265D1*
X18132Y8236D1*
X18160Y8222D1*
X18204Y8207D1*
X18275D1*
X18318Y8222D1*
X18347Y8236D1*
X18376Y8265D1*
X18390Y8294D1*
Y8351D1*
X18376Y8379D1*
X18347Y8408D1*
X18318Y8423D1*
X25854Y6275D2*
D105*
X25816Y6256D1*
X25777Y6217D1*
X25758Y6179D1*
Y6103D1*
X25777Y6064D1*
X25816Y6026D1*
X25854Y6007D1*
X25911Y5988D1*
X26007D1*
X26064Y6007D1*
X26102Y6026D1*
X26140Y6064D1*
X26160Y6103D1*
Y6179D1*
X26140Y6217D1*
X26102Y6256D1*
X26064Y6275D1*
X26007D1*
Y6179D1*
X25758Y6666D2*
X26160D1*
X25758Y6398D1*
X26160D1*
X25758Y6790D2*
X26160D1*
Y6924D1*
X26140Y6981D1*
X26102Y7020D1*
X26064Y7039D1*
X26007Y7058D1*
X25911D1*
X25854Y7039D1*
X25816Y7020D1*
X25777Y6981D1*
X25758Y6924D1*
Y6790D1*
X19708Y12099D2*
Y12501D1*
X19555Y12099D1*
X19403Y12501D1*
Y12099D1*
X19832Y12501D2*
X19851Y12482D1*
X19870Y12501D1*
X19851Y12520D1*
X19832Y12501D1*
X19851Y12367D2*
Y12099D1*
X20224Y12309D2*
X20185Y12348D1*
X20147Y12367D1*
X20090D1*
X20051Y12348D1*
X20013Y12309D1*
X19994Y12252D1*
Y12214D1*
X20013Y12156D1*
X20051Y12118D1*
X20090Y12099D1*
X20147D1*
X20185Y12118D1*
X20224Y12156D1*
X20347Y12367D2*
Y12099D1*
Y12252D2*
X20367Y12309D1*
X20405Y12348D1*
X20443Y12367D1*
X20501D1*
X20720D2*
X20682Y12348D1*
X20643Y12309D1*
X20624Y12252D1*
Y12214D1*
X20643Y12156D1*
X20682Y12118D1*
X20720Y12099D1*
X20777D1*
X20816Y12118D1*
X20854Y12156D1*
X20873Y12214D1*
Y12252D1*
X20854Y12309D1*
X20816Y12348D1*
X20777Y12367D1*
X20720D1*
X21265Y12443D2*
X21227Y12482D1*
X21169Y12501D1*
X21093D1*
X21035Y12482D1*
X20997Y12443D1*
Y12405D1*
X21016Y12367D1*
X21035Y12348D1*
X21073Y12329D1*
X21188Y12290D1*
X21227Y12271D1*
X21246Y12252D1*
X21265Y12214D1*
Y12156D1*
X21227Y12118D1*
X21169Y12099D1*
X21093D1*
X21035Y12118D1*
X20997Y12156D1*
X21388Y12501D2*
Y12099D1*
X21522D1*
X21580Y12118D1*
X21618Y12156D1*
X21637Y12195D1*
X21656Y12252D1*
Y12348D1*
X21637Y12405D1*
X21618Y12443D1*
X21580Y12482D1*
X21522Y12501D1*
X21388D1*
X17380Y8675D2*
D108*
Y8416D1*
X17251Y8545D2*
X17510D1*
X17380Y11549D2*
Y11290D1*
X17251Y11419D2*
X17510D1*
X30865Y14068D2*
Y13810D1*
X30736Y13939D2*
X30994D1*
M02*
