G04 DipTrace 2.4.0.2*
%INНижняямаска.gbr*%
%MOIN*%
%ADD46C,0.0669*%
%ADD57C,0.0559*%
%ADD65R,0.0748X0.0276*%
%ADD67R,0.0276X0.0748*%
%ADD71R,0.0315X0.0866*%
%ADD75R,0.0551X0.0866*%
%ADD77R,0.0413X0.1063*%
%ADD79R,0.0354X0.1063*%
%ADD81C,0.1063*%
%ADD83C,0.1953*%
%ADD85C,0.0744*%
%ADD87R,0.0744X0.0744*%
%ADD89C,0.0748*%
%ADD91R,0.0748X0.0748*%
%ADD93R,0.0579X0.0579*%
%ADD95C,0.0579*%
%ADD98R,0.0709X0.0787*%
%ADD100R,0.0787X0.0709*%
%ADD102C,0.0866*%
%FSLAX44Y44*%
G04*
G70*
G90*
G75*
G01*
%LNBotMask*%
%LPD*%
D102*
X17703Y15562D3*
X21640D3*
X19672Y14066D3*
D98*
X28840Y6761D3*
X29942D3*
X23328Y13750D3*
X22226D3*
D100*
X22141Y6625D3*
Y7727D3*
D98*
X31588Y12937D3*
X32690D3*
D95*
X6266Y5937D3*
D93*
Y4937D3*
D95*
Y14875D3*
D93*
Y15875D3*
D91*
X26956Y5312D3*
D89*
X25956D3*
X24956D3*
X23956D3*
X22956D3*
X21956D3*
D87*
X34516Y12562D3*
D85*
Y11471D3*
Y10381D3*
Y9290D3*
Y8200D3*
X35634Y12017D3*
Y10926D3*
Y9835D3*
Y8745D3*
D83*
X35075Y15300D3*
Y5461D3*
D81*
X5756Y9394D3*
Y11362D3*
D91*
X20236Y6929D3*
D89*
Y5929D3*
X19236Y6929D3*
Y5929D3*
X18236Y6929D3*
Y5929D3*
D91*
X20039Y11457D3*
D89*
X21039D3*
X20039Y10457D3*
X21039D3*
X20039Y9457D3*
X21039D3*
D79*
X8891Y7062D3*
X9324D3*
X9757D3*
X10190D3*
X10623D3*
X11056D3*
X11489D3*
D3*
X11922D3*
D77*
X12414D3*
X12869D3*
D75*
X7900Y10468D3*
X13733D3*
D46*
X8792Y8578D3*
X12729D3*
D98*
X32768Y7312D3*
X31666D3*
X31627Y11187D3*
X32729D3*
X31666Y9437D3*
X32769D3*
X19069Y10375D3*
X17967D3*
X15516D3*
X16618D3*
X19069Y12687D3*
X17967D3*
X15516D3*
X16618D3*
X19030Y8187D3*
X17927D3*
X15516D3*
X16618D3*
D71*
X28516Y11937D3*
X29016D3*
X29516D3*
X30016D3*
Y9811D3*
X29516D3*
X29016D3*
X28516D3*
D67*
X25965Y8181D3*
X25650D3*
X25335D3*
X25020D3*
X24705D3*
X24390D3*
X24075D3*
X23760D3*
D65*
X23209Y8732D3*
Y9047D3*
Y9362D3*
Y9677D3*
Y9992D3*
Y10307D3*
Y10622D3*
Y10937D3*
D67*
X23760Y11488D3*
X24075D3*
X24390D3*
X24705D3*
X25020D3*
X25335D3*
X25650D3*
X25965D3*
D65*
X26516Y10937D3*
Y10622D3*
Y10307D3*
Y9992D3*
Y9677D3*
Y9362D3*
Y9047D3*
Y8732D3*
D57*
X27641Y15187D3*
X26641D3*
M02*
