M48
INCH
T01C0.0138
T02C0.0191
T03C0.028
T04C0.032
T05C0.0354
T06C0.0394
T07C0.0429
T08C0.0433
T09C0.0472
T10C0.0669
T11C0.1283
%
T01
X+024328Y+009187
X+025141Y+010125
X+025827Y+010354
X+027078Y+010875
X+027766Y+010937
X+028891Y+010937
X+029625Y+011187
X+029391Y+008625
X+029328Y+008187
X+027756Y+008625
X+026703Y+008187
X+024370Y+007559
X+022891Y+008250
X+021578Y+008750
X+020266Y+008750
X+018016Y+007187
X+017283Y+007441
X+016453Y+007000
X+016822Y+005381
X+019953Y+005125
X+020203Y+004750
X+020016Y+005687
X+024138Y+004375
X+029606Y+005945
X+031578Y+008187
X+032266Y+007937
X+024330Y+012126
X+022391Y+010937
X+015585Y+010984
X+014953Y+008187
X+010703Y+008312
X+009842Y+009173
X+010703Y+010034
X+009324Y+007937
X+013203Y+012625
T02
X+025502Y+013750
X+026328Y+012126
X+027953Y+007562
X+031016Y+005000
X+020866Y+012480
X+008110Y+008030
T03
X+006266Y+005937
X+006266Y+004937
X+006266Y+014875
X+006266Y+015875
T04
X+027641Y+015187
X+026641Y+015187
T05
X+019205Y+006437
X+018417Y+006437
X+017630Y+006437
X+017630Y+005650
X+018417Y+005650
X+019205Y+005650
X+020641Y+009487
X+020641Y+010275
X+020641Y+011062
X+021428Y+011062
X+021428Y+010275
X+021428Y+009487
T06
X+017703Y+015562
X+019672Y+014066
X+021640Y+015562
T07
X+034516Y+012562
X+034516Y+011471
X+034516Y+010381
X+034516Y+009290
X+034516Y+008200
X+035634Y+008745
X+035634Y+009835
X+035634Y+010926
X+035634Y+012017
T08
X+026956Y+005312
X+025956Y+005312
X+024956Y+005312
X+023956Y+005312
X+022956Y+005312
X+021956Y+005312
T09
X+005756Y+009394
X+005756Y+011362
T10
X+008792Y+008578
X+012729Y+008578
T11
X+035075Y+015300
X+035075Y+005461
T00
M30
