G04 DipTrace 2.4.0.2*
%INНижняямаска.gbr*%
%MOIN*%
%ADD22R,0.0669X0.0669*%
%ADD23C,0.0669*%
%ADD48C,0.0669*%
%ADD59C,0.0559*%
%ADD67R,0.0748X0.0276*%
%ADD69R,0.0276X0.0748*%
%ADD73R,0.0315X0.0866*%
%ADD77R,0.0551X0.0866*%
%ADD79R,0.0413X0.1063*%
%ADD81R,0.0354X0.1063*%
%ADD85C,0.1063*%
%ADD87C,0.1953*%
%ADD89C,0.0744*%
%ADD91R,0.0744X0.0744*%
%ADD93C,0.0748*%
%ADD94R,0.0748X0.0748*%
%ADD95R,0.0579X0.0579*%
%ADD97C,0.0579*%
%ADD100R,0.0709X0.0787*%
%ADD102R,0.0787X0.0709*%
%ADD104C,0.0866*%
%FSLAX44Y44*%
G04*
G70*
G90*
G75*
G01*
%LNBotMask*%
%LPD*%
D104*
X17703Y15562D3*
X21640D3*
X19672Y14066D3*
D100*
X28840Y6761D3*
X29942D3*
X23328Y13750D3*
X22226D3*
D102*
X22141Y6625D3*
Y7727D3*
D100*
X31391Y12937D3*
X32493D3*
D97*
X6266Y5937D3*
D95*
Y4937D3*
D97*
Y14875D3*
D95*
Y15875D3*
D94*
X26956Y5312D3*
D93*
X25956D3*
X24956D3*
X23956D3*
X22956D3*
X21956D3*
D91*
X34516Y12562D3*
D89*
Y11471D3*
Y10381D3*
Y9290D3*
Y8200D3*
X35634Y12017D3*
Y10926D3*
Y9835D3*
Y8745D3*
D87*
X35075Y15300D3*
Y5461D3*
D85*
X5756Y9394D3*
Y11362D3*
D22*
X19205Y6437D3*
D23*
X18417D3*
X17630D3*
Y5650D3*
X18417D3*
X19205D3*
D22*
X20641Y11062D3*
D23*
Y10275D3*
Y9487D3*
X21428D3*
Y10275D3*
Y11062D3*
D81*
X8891Y7062D3*
X9324D3*
X9757D3*
X10190D3*
X10623D3*
X11056D3*
X11489D3*
D3*
X11922D3*
D79*
X12414D3*
X12869D3*
D77*
X7900Y10468D3*
X13733D3*
D48*
X8792Y8578D3*
X12729D3*
D100*
X32453Y7312D3*
X31351D3*
X31391Y11187D3*
X32493D3*
X31391Y9437D3*
X32493D3*
X19266Y10375D3*
X18163D3*
X15516D3*
X16618D3*
X19266Y12687D3*
X18163D3*
X15516D3*
X16618D3*
X19266Y8187D3*
X18163D3*
X15516D3*
X16618D3*
D73*
X28516Y11937D3*
X29016D3*
X29516D3*
X30016D3*
Y9811D3*
X29516D3*
X29016D3*
X28516D3*
D69*
X25965Y8181D3*
X25650D3*
X25335D3*
X25020D3*
X24705D3*
X24390D3*
X24075D3*
X23760D3*
D67*
X23209Y8732D3*
Y9047D3*
Y9362D3*
Y9677D3*
Y9992D3*
Y10307D3*
Y10622D3*
Y10937D3*
D69*
X23760Y11488D3*
X24075D3*
X24390D3*
X24705D3*
X25020D3*
X25335D3*
X25650D3*
X25965D3*
D67*
X26516Y10937D3*
Y10622D3*
Y10307D3*
Y9992D3*
Y9677D3*
Y9362D3*
Y9047D3*
Y8732D3*
D59*
X27641Y15187D3*
X26641D3*
M02*
