G04 DipTrace 2.4.0.2*
%INВерхняямаркировка.gbr*%
%MOIN*%
%ADD10C,0.0098*%
%ADD12C,0.003*%
%ADD14C,0.0197*%
%ADD39C,0.0154*%
%ADD106C,0.0077*%
%ADD107C,0.0046*%
%ADD109C,0.0124*%
%FSLAX44Y44*%
G04*
G70*
G90*
G75*
G01*
%LNTopSilk*%
%LPD*%
X18530Y15562D2*
D10*
X20813D1*
X22467Y15601D2*
X24002D1*
Y14066D1*
X20538D2*
X23963D1*
X15262Y15562D2*
X16798D1*
X15341Y14027D2*
X18766D1*
X15262Y15562D2*
Y14027D1*
X25643Y12070D2*
X25014D1*
X25643Y11995D2*
X25014D1*
X25643D2*
Y12231D1*
X25014Y11995D2*
Y12231D1*
Y8929D2*
X25643D1*
X25014Y9004D2*
X25643D1*
X25014D2*
Y8768D1*
X25643Y9004D2*
Y8768D1*
X16940Y8284D2*
X15523D1*
X16940Y9465D2*
X15523D1*
D14*
X17432Y8875D3*
X16884Y11159D2*
D10*
X15467D1*
X16884Y12340D2*
X15467D1*
D14*
X17376Y11750D3*
X32448Y6752D2*
D10*
Y6123D1*
X32523Y6752D2*
Y6123D1*
Y6752D2*
X32287D1*
X32523Y6123D2*
X32287D1*
X32475Y10299D2*
Y10928D1*
X32401Y10299D2*
Y10928D1*
Y10299D2*
X32637D1*
X32401Y10928D2*
X32637D1*
X29622Y5513D2*
Y4884D1*
X29696Y5513D2*
Y4884D1*
Y5513D2*
X29460D1*
X29696Y4884D2*
X29460D1*
X29546Y12310D2*
Y12939D1*
X29472Y12310D2*
Y12939D1*
Y12310D2*
X29707D1*
X29472Y12939D2*
X29707D1*
X7015Y4437D2*
X5516D1*
X7018Y4439D2*
G03X5513Y4439I-752J998D01*
G01*
X5516Y16374D2*
X7015D1*
X5513Y16372D2*
G03X7018Y16372I752J-998D01*
G01*
X27455Y4812D2*
X21456D1*
Y5812D1*
X27455D1*
Y4812D1*
X40924Y5458D2*
G03X40924Y6464I-523J503D01*
G01*
Y4463D2*
G03X40924Y5458I-508J497D01*
G01*
X39091D2*
G03X39091Y4463I483J-497D01*
G01*
Y6464D2*
G03X39091Y5458I498J-503D01*
G01*
X40924Y15304D2*
G03X40924Y16298I-508J497D01*
G01*
Y14297D2*
G03X40924Y15304I-523J503D01*
G01*
X39091D2*
G03X39091Y14297I498J-503D01*
G01*
Y16298D2*
G03X39091Y15304I483J-497D01*
G01*
X40902Y6888D2*
G03X41178Y7167I-6J281D01*
G01*
X39091Y6888D2*
G03X38816Y6622I-14J-261D01*
G01*
X41178Y13594D2*
G03X40902Y13873I-281J-2D01*
G01*
X38816Y14140D2*
G03X39091Y13873I261J-6D01*
G01*
Y6464D2*
X38838Y6209D1*
X39091Y6464D2*
X40924D1*
X41178Y6209D1*
Y4706D1*
X40924Y4463D1*
X40424D2*
X40504D1*
X39091D2*
X40924D1*
X38838Y4706D2*
X39091Y4463D1*
Y5458D2*
X40924D1*
X39091Y16298D2*
X38838Y16056D1*
X39091Y16298D2*
X40924D1*
X41178Y16056D1*
Y14552D1*
X40924Y14297D1*
X40424D2*
X40504D1*
X39091D2*
X40924D1*
X38838Y14552D2*
X39091Y14297D1*
Y15304D2*
X40924D1*
X39091Y6888D2*
X40902D1*
X39091Y13873D2*
X40902D1*
X33933Y13133D2*
X37635D1*
X38816Y16444D2*
Y4318D1*
X33933Y7628D2*
X37635D1*
X33933Y16444D2*
Y4318D1*
X41178Y13594D2*
Y7167D1*
X33933Y16444D2*
X38816D1*
X33933Y4318D2*
X38816D1*
X37635Y16444D2*
Y4318D1*
X4181Y8409D2*
X7724D1*
Y12346D1*
X4181D1*
Y8409D1*
X4653D2*
Y12307D1*
X4220Y10378D2*
X7685D1*
X5047Y9395D2*
X5049Y9444D1*
X5054Y9494D1*
X5063Y9542D1*
X5075Y9591D1*
X5090Y9638D1*
X5108Y9684D1*
X5130Y9728D1*
X5155Y9771D1*
X5182Y9812D1*
X5213Y9851D1*
X5246Y9888D1*
X5282Y9922D1*
X5319Y9954D1*
X5359Y9983D1*
X5401Y10010D1*
X5445Y10033D1*
X5490Y10053D1*
X5537Y10070D1*
X5584Y10084D1*
X5633Y10094D1*
X5682Y10101D1*
X5731Y10104D1*
X5780D1*
X5830Y10101D1*
X5879Y10094D1*
X5927Y10084D1*
X5975Y10070D1*
X6021Y10053D1*
X6066Y10033D1*
X6110Y10010D1*
X6152Y9983D1*
X6192Y9954D1*
X6230Y9922D1*
X6266Y9888D1*
X6299Y9851D1*
X6329Y9812D1*
X6357Y9771D1*
X6381Y9728D1*
X6403Y9684D1*
X6422Y9638D1*
X6437Y9591D1*
X6449Y9542D1*
X6458Y9494D1*
X6463Y9444D1*
X6464Y9395D1*
X6463Y9345D1*
X6458Y9296D1*
X6449Y9247D1*
X6437Y9199D1*
X6422Y9152D1*
X6403Y9106D1*
X6381Y9062D1*
X6357Y9019D1*
X6329Y8978D1*
X6299Y8939D1*
X6266Y8902D1*
X6230Y8867D1*
X6192Y8836D1*
X6152Y8806D1*
X6110Y8780D1*
X6066Y8757D1*
X6021Y8737D1*
X5975Y8720D1*
X5927Y8706D1*
X5879Y8696D1*
X5830Y8689D1*
X5780Y8685D1*
X5731D1*
X5682Y8689D1*
X5633Y8696D1*
X5584Y8706D1*
X5537Y8720D1*
X5490Y8737D1*
X5445Y8757D1*
X5401Y8780D1*
X5359Y8806D1*
X5319Y8836D1*
X5282Y8867D1*
X5246Y8902D1*
X5213Y8939D1*
X5182Y8978D1*
X5155Y9019D1*
X5130Y9062D1*
X5108Y9106D1*
X5090Y9152D1*
X5075Y9199D1*
X5063Y9247D1*
X5054Y9296D1*
X5049Y9345D1*
X5047Y9395D1*
Y11363D2*
X5049Y11413D1*
X5054Y11462D1*
X5063Y11511D1*
X5075Y11559D1*
X5090Y11606D1*
X5108Y11652D1*
X5130Y11697D1*
X5155Y11740D1*
X5182Y11781D1*
X5213Y11820D1*
X5246Y11856D1*
X5282Y11891D1*
X5319Y11923D1*
X5359Y11952D1*
X5401Y11978D1*
X5445Y12001D1*
X5490Y12022D1*
X5537Y12038D1*
X5584Y12052D1*
X5633Y12062D1*
X5682Y12069D1*
X5731Y12073D1*
X5780D1*
X5830Y12069D1*
X5879Y12062D1*
X5927Y12052D1*
X5975Y12038D1*
X6021Y12022D1*
X6066Y12001D1*
X6110Y11978D1*
X6152Y11952D1*
X6192Y11923D1*
X6230Y11891D1*
X6266Y11856D1*
X6299Y11820D1*
X6329Y11781D1*
X6357Y11740D1*
X6381Y11697D1*
X6403Y11652D1*
X6422Y11606D1*
X6437Y11559D1*
X6449Y11511D1*
X6458Y11462D1*
X6463Y11413D1*
X6464Y11363D1*
X6463Y11314D1*
X6458Y11265D1*
X6449Y11216D1*
X6437Y11168D1*
X6422Y11121D1*
X6403Y11075D1*
X6381Y11030D1*
X6357Y10987D1*
X6329Y10946D1*
X6299Y10907D1*
X6266Y10870D1*
X6230Y10836D1*
X6192Y10804D1*
X6152Y10775D1*
X6110Y10749D1*
X6066Y10725D1*
X6021Y10705D1*
X5975Y10688D1*
X5927Y10675D1*
X5879Y10664D1*
X5830Y10657D1*
X5780Y10654D1*
X5731D1*
X5682Y10657D1*
X5633Y10664D1*
X5584Y10675D1*
X5537Y10688D1*
X5490Y10705D1*
X5445Y10725D1*
X5401Y10749D1*
X5359Y10775D1*
X5319Y10804D1*
X5282Y10836D1*
X5246Y10870D1*
X5213Y10907D1*
X5182Y10946D1*
X5155Y10987D1*
X5130Y11030D1*
X5108Y11075D1*
X5090Y11121D1*
X5075Y11168D1*
X5063Y11216D1*
X5054Y11265D1*
X5049Y11314D1*
X5047Y11363D1*
X19677Y5177D2*
X17158D1*
Y6910D1*
X19677D1*
Y5177D1*
X21901Y11534D2*
X20168D1*
Y9015D1*
X21901D1*
Y11534D1*
X8768Y5245D2*
Y5481D1*
X8139Y5245D2*
Y5481D1*
X8264Y15441D2*
Y15206D1*
X8893Y15441D2*
Y15206D1*
X30152Y6844D2*
Y10780D1*
X29128Y6844D2*
Y10780D1*
X30152D2*
X29128D1*
X30152Y6844D2*
X29837D1*
X29443D2*
X29128D1*
X29837D2*
G03X29443Y6844I-197J0D01*
G01*
D39*
X12302Y9165D3*
X11410Y9155D2*
D10*
Y11753D1*
X10308Y9155D2*
Y11753D1*
X11410D2*
X10308D1*
X11410Y9155D2*
X10308D1*
D39*
X23026Y7572D3*
X22971Y8063D2*
D10*
X22676D1*
X24605Y12551D2*
X24310D1*
X24605Y8063D2*
Y12551D1*
Y8063D2*
X24310D1*
X22971Y12551D2*
X22676D1*
Y8063D2*
Y12551D1*
X27691Y14537D2*
X26591D1*
X26641Y11287D2*
G02X26541Y11387I0J100D01*
G01*
X27741D2*
G02X27641Y11287I-100J0D01*
G01*
X26641D1*
X26591Y14537D2*
Y14387D1*
X26541D2*
X26591D1*
X26541D2*
Y11387D1*
X27691Y14537D2*
Y14387D1*
X27741D2*
X27691D1*
X27741D2*
Y11387D1*
X26591Y14387D2*
X27691D1*
G36*
X27021Y14787D2*
X26861D1*
Y14557D1*
X27021D1*
Y14787D1*
G37*
G36*
X27421D2*
X27261D1*
Y14557D1*
X27421D1*
Y14787D1*
G37*
X26944Y14892D2*
D10*
X26941Y14737D1*
X27341Y14887D2*
Y14787D1*
X26944Y14892D2*
X26905Y14951D1*
X27377D2*
X27338Y14892D1*
X27441Y12987D2*
Y13137D1*
X26841D2*
X27441D1*
X26841D2*
Y12987D1*
X27441D2*
X26841D1*
X27441Y12837D2*
X27141D1*
X27441Y13287D2*
X27141D1*
Y13487D1*
Y13287D2*
X26841D1*
X27141Y12837D2*
Y12637D1*
Y12837D2*
X26841D1*
X29463Y16220D2*
D12*
X29642D1*
X30450D2*
D3*
X31557D2*
D3*
X28385Y16190D2*
X29223D1*
X29418D2*
X29691D1*
X30181D2*
X30450D1*
X30510D2*
X31557D1*
X31707D2*
X32544D1*
X32664D2*
X32993D1*
X28353Y16160D2*
X29223D1*
X29378D2*
X29734D1*
X30181D2*
X30450D1*
X30510D2*
X31557D1*
X31683D2*
X32544D1*
X32664D2*
X32993D1*
X28329Y16130D2*
X29223D1*
X29359D2*
X29764D1*
X30181D2*
X30450D1*
X30510D2*
X31557D1*
X31665D2*
X32544D1*
X32664D2*
X32993D1*
X28312Y16100D2*
X29223D1*
X29345D2*
X29785D1*
X30181D2*
X30450D1*
X30510D2*
X31557D1*
X31655D2*
X32544D1*
X32664D2*
X32993D1*
X28303Y16070D2*
X29223D1*
X29334D2*
X29805D1*
X30181D2*
X30450D1*
X30510D2*
X31557D1*
X31650D2*
X32544D1*
X32664D2*
X32993D1*
X28299Y16040D2*
X29223D1*
X29324D2*
X29828D1*
X30181D2*
X30450D1*
X30510D2*
X31557D1*
X31648D2*
X32544D1*
X32664D2*
X32993D1*
X28297Y16011D2*
X29223D1*
X29318D2*
X29853D1*
X30181D2*
X30450D1*
X30510D2*
X31557D1*
X31647D2*
X32544D1*
X32664D2*
X32993D1*
X28296Y15981D2*
X29223D1*
X29315D2*
X29877D1*
X30181D2*
X30450D1*
X30510D2*
X31557D1*
X31647D2*
X32544D1*
X32664D2*
X32993D1*
X28296Y15951D2*
X29223D1*
X29314D2*
X29899D1*
X30181D2*
X30450D1*
X30510D2*
X31557D1*
X31647D2*
X32544D1*
X32666D2*
X32993D1*
X28296Y15921D2*
X28696D1*
X29313D2*
X29917D1*
X30181D2*
X30450D1*
X30869D2*
X31228D1*
X31647D2*
X32006D1*
X32671D2*
X32993D1*
X28296Y15891D2*
X28656D1*
X29313D2*
X29934D1*
X30181D2*
X30450D1*
X30869D2*
X31228D1*
X31647D2*
X31976D1*
X32704D2*
X32993D1*
X28296Y15861D2*
X28640D1*
X29313D2*
X29952D1*
X30181D2*
X30450D1*
X30869D2*
X31224D1*
X32795D2*
X32993D1*
X28296Y15831D2*
X28631D1*
X29313D2*
X29972D1*
X30181D2*
X30450D1*
X30869D2*
X31216D1*
X32904D2*
X32993D1*
X28296Y15801D2*
X29193D1*
X29313D2*
X29991D1*
X30181D2*
X30450D1*
X30870D2*
X31172D1*
X31677D2*
X31976D1*
X32664D2*
D3*
X28296Y15771D2*
X29193D1*
X29313D2*
X30011D1*
X30181D2*
X30450D1*
X30873D2*
X31102D1*
X31663D2*
X31976D1*
X32664D2*
X32844D1*
X32904D2*
D3*
X28296Y15741D2*
X29193D1*
X29313D2*
X29582D1*
X29637D2*
X30031D1*
X30181D2*
X30450D1*
X30888D2*
X31007D1*
X31198D2*
X31228D1*
X31654D2*
X32544D1*
X32664D2*
X32993D1*
X28296Y15711D2*
X29193D1*
X29313D2*
X29582D1*
X29659D2*
X30051D1*
X30181D2*
X30450D1*
X30921D2*
X30899D1*
X31106D2*
X31228D1*
X31650D2*
X32544D1*
X32664D2*
X32993D1*
X28296Y15681D2*
X29193D1*
X29313D2*
X29582D1*
X29678D2*
X30071D1*
X30181D2*
X30450D1*
X31020D2*
X31228D1*
X31648D2*
X32544D1*
X32664D2*
X32993D1*
X28298Y15651D2*
X29193D1*
X29313D2*
X29582D1*
X29699D2*
X30091D1*
X30179D2*
X30449D1*
X30952D2*
X31228D1*
X31647D2*
X32544D1*
X32664D2*
X32993D1*
X28305Y15622D2*
X29193D1*
X29313D2*
X29582D1*
X29721D2*
X30111D1*
X30175D2*
X30437D1*
X30901D2*
X31228D1*
X31647D2*
X32544D1*
X32664D2*
X32993D1*
X28335Y15592D2*
X29193D1*
X29313D2*
X29582D1*
X29745D2*
X30130D1*
X30165D2*
X30391D1*
X30881D2*
X31228D1*
X31647D2*
X32544D1*
X32664D2*
X32993D1*
X28400Y15562D2*
X29193D1*
X29313D2*
X29582D1*
X29769D2*
X30322D1*
X30875D2*
X31228D1*
X31647D2*
X32544D1*
X32664D2*
X32993D1*
X28475Y15532D2*
X28625D1*
X29313D2*
X29582D1*
X29834D2*
X30241D1*
X30871D2*
X31228D1*
X31647D2*
X32544D1*
X32664D2*
X32993D1*
X28296Y15502D2*
X28475D1*
X29313D2*
X29582D1*
X29946D2*
X30061D1*
X30121D2*
D3*
X30241D2*
X30450D1*
X30870D2*
X31228D1*
X31647D2*
X32544D1*
X32664D2*
X32993D1*
X28296Y15472D2*
X28537D1*
X30121D2*
X30450D1*
X30869D2*
X31228D1*
X31647D2*
X31976D1*
X32664D2*
X32993D1*
X28296Y15442D2*
X28588D1*
X29953D2*
X30450D1*
X30869D2*
X31228D1*
X31647D2*
X31977D1*
X32664D2*
X32995D1*
X28296Y15412D2*
X28613D1*
X29582D2*
D3*
X29792D2*
X30450D1*
X30869D2*
X31228D1*
X31647D2*
X31982D1*
X32664D2*
X33000D1*
X28296Y15382D2*
X28635D1*
X29313D2*
X29582D1*
X29822D2*
X30450D1*
X30869D2*
X31228D1*
X31647D2*
X31994D1*
X32664D2*
X33012D1*
X28296Y15352D2*
X28659D1*
X29313D2*
X29582D1*
X29850D2*
X30450D1*
X30869D2*
X31228D1*
X31647D2*
X32013D1*
X32664D2*
X33031D1*
X28296Y15322D2*
X29223D1*
X29313D2*
X29582D1*
X29875D2*
X30450D1*
X30869D2*
X31228D1*
X31647D2*
X32574D1*
X32664D2*
X33592D1*
X28296Y15292D2*
X29223D1*
X29313D2*
X29582D1*
X29895D2*
X30450D1*
X30869D2*
X31228D1*
X31647D2*
X32574D1*
X32664D2*
X33592D1*
X28296Y15263D2*
X29223D1*
X29313D2*
X29582D1*
X29914D2*
X30450D1*
X30869D2*
X31228D1*
X31647D2*
X32574D1*
X32664D2*
X33592D1*
X28297Y15233D2*
X29223D1*
X29313D2*
X29582D1*
X29937D2*
X30450D1*
X30869D2*
X31228D1*
X31647D2*
X32574D1*
X32664D2*
X33592D1*
X28301Y15203D2*
X29223D1*
X29313D2*
X29582D1*
X29962D2*
X30449D1*
X30869D2*
X31228D1*
X31648D2*
X32574D1*
X32664D2*
X33592D1*
X28309Y15173D2*
X29223D1*
X29313D2*
X29582D1*
X29982D2*
X30443D1*
X30869D2*
X31228D1*
X31652D2*
X32574D1*
X32664D2*
X33592D1*
X28321Y15143D2*
X29223D1*
X29313D2*
X29582D1*
X30001D2*
X30433D1*
X30869D2*
X31228D1*
X31659D2*
X32574D1*
X32664D2*
X33592D1*
X28337Y15113D2*
X29223D1*
X29313D2*
X29582D1*
X30022D2*
X30401D1*
X30869D2*
X31228D1*
X31668D2*
X32574D1*
X32664D2*
X33592D1*
X28356Y15083D2*
X29223D1*
X29313D2*
X29582D1*
X30068D2*
X30355D1*
X30869D2*
X31228D1*
X31677D2*
X32574D1*
X32664D2*
X33592D1*
X29582Y15053D2*
D3*
X30121D2*
X30300D1*
X29463Y16220D2*
X29418Y16190D1*
X29378Y16160D1*
X29359Y16130D1*
X29345Y16100D1*
X29334Y16070D1*
X29324Y16040D1*
X29318Y16011D1*
X29315Y15981D1*
X29314Y15951D1*
X29313Y15921D1*
Y15891D1*
Y15861D1*
Y15831D1*
Y15801D1*
Y15771D1*
Y15741D1*
Y15711D1*
Y15681D1*
Y15651D1*
Y15622D1*
Y15592D1*
Y15562D1*
Y15532D1*
Y15502D1*
X29642Y16220D2*
X29691Y16190D1*
X29734Y16160D1*
X29764Y16130D1*
X29785Y16100D1*
X29805Y16070D1*
X29828Y16040D1*
X29853Y16011D1*
X29877Y15981D1*
X29899Y15951D1*
X29917Y15921D1*
X29934Y15891D1*
X29952Y15861D1*
X29972Y15831D1*
X29991Y15801D1*
X30011Y15771D1*
X30031Y15741D1*
X30051Y15711D1*
X30071Y15681D1*
X30091Y15651D1*
X30111Y15622D1*
X30130Y15592D1*
X30151Y15562D1*
X30450Y16220D2*
X30181Y16190D1*
Y16160D1*
Y16130D1*
Y16100D1*
Y16070D1*
Y16040D1*
Y16011D1*
Y15981D1*
Y15951D1*
Y15921D1*
Y15891D1*
Y15861D1*
Y15831D1*
Y15801D1*
Y15771D1*
Y15741D1*
Y15711D1*
Y15681D1*
X30179Y15651D1*
X30175Y15622D1*
X30165Y15592D1*
X30151Y15562D1*
X31557Y16220D2*
Y16190D1*
X28385D2*
X28353Y16160D1*
X28329Y16130D1*
X28312Y16100D1*
X28303Y16070D1*
X28299Y16040D1*
X28297Y16011D1*
X28296Y15981D1*
Y15951D1*
Y15921D1*
Y15891D1*
Y15861D1*
Y15831D1*
Y15801D1*
Y15771D1*
Y15741D1*
Y15711D1*
Y15681D1*
X28298Y15651D1*
X28305Y15622D1*
X28335Y15592D1*
X28400Y15562D1*
X28475Y15532D1*
X28296Y15502D1*
Y15472D1*
Y15442D1*
Y15412D1*
Y15382D1*
Y15352D1*
Y15322D1*
Y15292D1*
Y15263D1*
X28297Y15233D1*
X28301Y15203D1*
X28309Y15173D1*
X28321Y15143D1*
X28337Y15113D1*
X28356Y15083D1*
X29223Y16190D2*
Y16160D1*
Y16130D1*
Y16100D1*
Y16070D1*
Y16040D1*
Y16011D1*
Y15981D1*
Y15951D1*
X30450Y16190D2*
Y16160D1*
Y16130D1*
Y16100D1*
Y16070D1*
Y16040D1*
Y16011D1*
Y15981D1*
Y15951D1*
Y15921D1*
Y15891D1*
Y15861D1*
Y15831D1*
Y15801D1*
Y15771D1*
Y15741D1*
Y15711D1*
Y15681D1*
X30449Y15651D1*
X30437Y15622D1*
X30391Y15592D1*
X30322Y15562D1*
X30241Y15532D1*
X30450Y15502D1*
Y15472D1*
Y15442D1*
Y15412D1*
Y15382D1*
Y15352D1*
Y15322D1*
Y15292D1*
Y15263D1*
Y15233D1*
X30449Y15203D1*
X30443Y15173D1*
X30433Y15143D1*
X30401Y15113D1*
X30355Y15083D1*
X30300Y15053D1*
X30510Y16190D2*
Y16160D1*
Y16130D1*
Y16100D1*
Y16070D1*
Y16040D1*
Y16011D1*
Y15981D1*
Y15951D1*
X31557Y16190D2*
Y16160D1*
Y16130D1*
Y16100D1*
Y16070D1*
Y16040D1*
Y16011D1*
Y15981D1*
Y15951D1*
Y15921D1*
X31228D1*
Y15891D1*
X31224Y15861D1*
X31216Y15831D1*
X31172Y15801D1*
X31102Y15771D1*
X31007Y15741D1*
X30899Y15711D1*
X31707Y16190D2*
X31683Y16160D1*
X31665Y16130D1*
X31655Y16100D1*
X31650Y16070D1*
X31648Y16040D1*
X31647Y16011D1*
Y15981D1*
Y15951D1*
Y15921D1*
Y15891D1*
X32544Y16190D2*
Y16160D1*
Y16130D1*
Y16100D1*
Y16070D1*
Y16040D1*
Y16011D1*
Y15981D1*
Y15951D1*
X32664Y16190D2*
Y16160D1*
Y16130D1*
Y16100D1*
Y16070D1*
Y16040D1*
Y16011D1*
Y15981D1*
X32666Y15951D1*
X32671Y15921D1*
X32704Y15891D1*
X32795Y15861D1*
X32904Y15831D1*
X32993Y16190D2*
Y16160D1*
Y16130D1*
Y16100D1*
Y16070D1*
Y16040D1*
Y16011D1*
Y15981D1*
Y15951D1*
Y15921D1*
Y15891D1*
Y15861D1*
Y15831D1*
X28744Y15951D2*
X28696Y15921D1*
X28656Y15891D1*
X28640Y15861D1*
X28631Y15831D1*
X28625Y15801D1*
X30869Y15951D2*
Y15921D1*
Y15891D1*
Y15861D1*
Y15831D1*
X30870Y15801D1*
X30873Y15771D1*
X30888Y15741D1*
X30921Y15711D1*
X30959Y15681D1*
X32036Y15951D2*
X32006Y15921D1*
X31976Y15891D1*
X29193Y15801D2*
Y15771D1*
Y15741D1*
Y15711D1*
Y15681D1*
Y15651D1*
Y15622D1*
Y15592D1*
Y15562D1*
X31677Y15801D2*
X31663Y15771D1*
X31654Y15741D1*
X31650Y15711D1*
X31648Y15681D1*
X31647Y15651D1*
Y15622D1*
Y15592D1*
Y15562D1*
Y15532D1*
Y15502D1*
Y15472D1*
Y15442D1*
Y15412D1*
Y15382D1*
Y15352D1*
Y15322D1*
Y15292D1*
Y15263D1*
Y15233D1*
X31648Y15203D1*
X31652Y15173D1*
X31659Y15143D1*
X31668Y15113D1*
X31677Y15083D1*
X31976Y15801D2*
Y15771D1*
Y15741D1*
X32664Y15801D2*
Y15771D1*
Y15741D1*
Y15711D1*
Y15681D1*
Y15651D1*
Y15622D1*
Y15592D1*
Y15562D1*
Y15532D1*
Y15502D1*
Y15472D1*
Y15442D1*
Y15412D1*
Y15382D1*
Y15352D1*
Y15322D1*
Y15292D1*
Y15263D1*
Y15233D1*
Y15203D1*
Y15173D1*
Y15143D1*
Y15113D1*
Y15083D1*
X32844Y15771D2*
X32874Y15741D1*
X32904Y15771D2*
X32874Y15741D1*
X29582Y15771D2*
Y15741D1*
Y15711D1*
Y15681D1*
Y15651D1*
Y15622D1*
Y15592D1*
Y15562D1*
Y15532D1*
Y15502D1*
X29612Y15771D2*
X29637Y15741D1*
X29659Y15711D1*
X29678Y15681D1*
X29699Y15651D1*
X29721Y15622D1*
X29745Y15592D1*
X29769Y15562D1*
X29834Y15532D1*
X29946Y15502D1*
X30091Y15472D1*
X31198Y15741D2*
X31106Y15711D1*
X31020Y15681D1*
X30952Y15651D1*
X30901Y15622D1*
X30881Y15592D1*
X30875Y15562D1*
X30871Y15532D1*
X30870Y15502D1*
X30869Y15472D1*
Y15442D1*
Y15412D1*
Y15382D1*
Y15352D1*
Y15322D1*
Y15292D1*
Y15263D1*
Y15233D1*
Y15203D1*
Y15173D1*
Y15143D1*
Y15113D1*
Y15083D1*
X31228Y15741D2*
Y15711D1*
Y15681D1*
Y15651D1*
Y15622D1*
Y15592D1*
Y15562D1*
Y15532D1*
Y15502D1*
Y15472D1*
Y15442D1*
Y15412D1*
Y15382D1*
Y15352D1*
Y15322D1*
Y15292D1*
Y15263D1*
Y15233D1*
Y15203D1*
Y15173D1*
Y15143D1*
Y15113D1*
Y15083D1*
X32544Y15741D2*
Y15711D1*
Y15681D1*
Y15651D1*
Y15622D1*
Y15592D1*
Y15562D1*
Y15532D1*
Y15502D1*
X32993Y15741D2*
Y15711D1*
Y15681D1*
Y15651D1*
Y15622D1*
Y15592D1*
Y15562D1*
Y15532D1*
Y15502D1*
Y15472D1*
X32995Y15442D1*
X33000Y15412D1*
X33012Y15382D1*
X33031Y15352D1*
X33053Y15322D1*
X28774Y15562D2*
X28625Y15532D1*
X28475Y15502D1*
X28537Y15472D1*
X28588Y15442D1*
X28613Y15412D1*
X28635Y15382D1*
X28659Y15352D1*
X28685Y15322D1*
X30091Y15532D2*
X30061Y15502D1*
X30121Y15532D2*
Y15502D1*
Y15472D1*
X29953Y15442D1*
X29792Y15412D1*
X29822Y15382D1*
X29850Y15352D1*
X29875Y15322D1*
X29895Y15292D1*
X29914Y15263D1*
X29937Y15233D1*
X29962Y15203D1*
X29982Y15173D1*
X30001Y15143D1*
X30022Y15113D1*
X30068Y15083D1*
X30121Y15053D1*
X30241Y15502D2*
X30211Y15472D1*
X31976Y15502D2*
Y15472D1*
X31977Y15442D1*
X31982Y15412D1*
X31994Y15382D1*
X32013Y15352D1*
X32036Y15322D1*
X29582Y15412D2*
X29313Y15382D1*
Y15352D1*
Y15322D1*
Y15292D1*
Y15263D1*
Y15233D1*
Y15203D1*
Y15173D1*
Y15143D1*
Y15113D1*
Y15083D1*
X29582Y15053D1*
Y15382D2*
Y15352D1*
Y15322D1*
Y15292D1*
Y15263D1*
Y15233D1*
Y15203D1*
Y15173D1*
Y15143D1*
Y15113D1*
Y15083D1*
Y15053D1*
X29223Y15322D2*
Y15292D1*
Y15263D1*
Y15233D1*
Y15203D1*
Y15173D1*
Y15143D1*
Y15113D1*
Y15083D1*
X32574Y15322D2*
Y15292D1*
Y15263D1*
Y15233D1*
Y15203D1*
Y15173D1*
Y15143D1*
Y15113D1*
Y15083D1*
X33592Y15322D2*
Y15292D1*
Y15263D1*
Y15233D1*
Y15203D1*
Y15173D1*
Y15143D1*
Y15113D1*
Y15083D1*
X24328Y15125D2*
D106*
Y14623D1*
X24544D1*
X24616Y14647D1*
X24639Y14671D1*
X24663Y14718D1*
Y14790D1*
X24639Y14838D1*
X24616Y14862D1*
X24544Y14886D1*
X24616Y14910D1*
X24639Y14934D1*
X24663Y14982D1*
Y15030D1*
X24639Y15077D1*
X24616Y15102D1*
X24544Y15125D1*
X24328D1*
Y14886D2*
X24544D1*
X24818Y15029D2*
X24866Y15053D1*
X24938Y15125D1*
Y14623D1*
X24817Y13562D2*
X24793Y13609D1*
X24745Y13657D1*
X24697Y13681D1*
X24602D1*
X24554Y13657D1*
X24506Y13609D1*
X24482Y13562D1*
X24458Y13490D1*
Y13370D1*
X24482Y13299D1*
X24506Y13250D1*
X24554Y13203D1*
X24602Y13179D1*
X24697D1*
X24745Y13203D1*
X24793Y13250D1*
X24817Y13299D1*
X24971Y13585D2*
X25019Y13609D1*
X25091Y13680D1*
Y13179D1*
X25226Y7619D2*
X25202Y7667D1*
X25154Y7715D1*
X25106Y7739D1*
X25011D1*
X24962Y7715D1*
X24915Y7667D1*
X24891Y7619D1*
X24867Y7547D1*
Y7427D1*
X24891Y7356D1*
X24915Y7308D1*
X24962Y7261D1*
X25011Y7236D1*
X25106D1*
X25154Y7261D1*
X25202Y7308D1*
X25226Y7356D1*
X25404Y7619D2*
Y7642D1*
X25428Y7691D1*
X25452Y7714D1*
X25500Y7738D1*
X25595D1*
X25643Y7714D1*
X25667Y7691D1*
X25691Y7642D1*
Y7595D1*
X25667Y7547D1*
X25619Y7476D1*
X25380Y7236D1*
X25715D1*
X16167Y10050D2*
X16144Y10097D1*
X16096Y10145D1*
X16048Y10169D1*
X15952D1*
X15904Y10145D1*
X15857Y10097D1*
X15833Y10050D1*
X15809Y9978D1*
Y9858D1*
X15833Y9787D1*
X15857Y9739D1*
X15904Y9691D1*
X15952Y9667D1*
X16048D1*
X16096Y9691D1*
X16144Y9739D1*
X16167Y9787D1*
X16609Y10169D2*
X16370D1*
X16346Y9954D1*
X16370Y9977D1*
X16442Y10002D1*
X16513D1*
X16585Y9977D1*
X16633Y9930D1*
X16657Y9858D1*
Y9810D1*
X16633Y9739D1*
X16585Y9690D1*
X16513Y9667D1*
X16442D1*
X16370Y9690D1*
X16346Y9715D1*
X16322Y9762D1*
X16130Y13157D2*
X16106Y13205D1*
X16058Y13253D1*
X16011Y13277D1*
X15915D1*
X15867Y13253D1*
X15820Y13205D1*
X15795Y13157D1*
X15771Y13086D1*
Y12966D1*
X15795Y12894D1*
X15820Y12846D1*
X15867Y12799D1*
X15915Y12774D1*
X16011D1*
X16058Y12799D1*
X16106Y12846D1*
X16130Y12894D1*
X16380Y12774D2*
X16619Y13276D1*
X16285D1*
X32203Y5717D2*
X32179Y5764D1*
X32131Y5812D1*
X32083Y5836D1*
X31988D1*
X31940Y5812D1*
X31892Y5764D1*
X31868Y5717D1*
X31844Y5645D1*
Y5525D1*
X31868Y5454D1*
X31892Y5406D1*
X31940Y5358D1*
X31988Y5334D1*
X32083D1*
X32131Y5358D1*
X32179Y5406D1*
X32203Y5454D1*
X32357Y5740D2*
X32405Y5764D1*
X32477Y5836D1*
Y5334D1*
X32775Y5836D2*
X32703Y5812D1*
X32655Y5740D1*
X32631Y5621D1*
Y5549D1*
X32655Y5429D1*
X32703Y5357D1*
X32775Y5334D1*
X32823D1*
X32894Y5357D1*
X32942Y5429D1*
X32966Y5549D1*
Y5621D1*
X32942Y5740D1*
X32894Y5812D1*
X32823Y5836D1*
X32775D1*
X32942Y5740D2*
X32655Y5429D1*
X32424Y11581D2*
X32400Y11629D1*
X32352Y11677D1*
X32304Y11700D1*
X32209D1*
X32161Y11677D1*
X32113Y11629D1*
X32089Y11581D1*
X32065Y11509D1*
Y11389D1*
X32089Y11318D1*
X32113Y11270D1*
X32161Y11222D1*
X32209Y11198D1*
X32304D1*
X32352Y11222D1*
X32400Y11270D1*
X32424Y11318D1*
X32578Y11604D2*
X32626Y11629D1*
X32698Y11700D1*
Y11198D1*
X32852Y11604D2*
X32901Y11629D1*
X32972Y11700D1*
Y11198D1*
X29383Y4517D2*
X29359Y4565D1*
X29311Y4613D1*
X29263Y4637D1*
X29168D1*
X29120Y4613D1*
X29072Y4565D1*
X29048Y4517D1*
X29024Y4446D1*
Y4326D1*
X29048Y4254D1*
X29072Y4206D1*
X29120Y4159D1*
X29168Y4134D1*
X29263D1*
X29311Y4159D1*
X29359Y4206D1*
X29383Y4254D1*
X29537Y4541D2*
X29585Y4565D1*
X29657Y4636D1*
Y4134D1*
X29836Y4517D2*
Y4541D1*
X29859Y4589D1*
X29883Y4612D1*
X29931Y4636D1*
X30027D1*
X30074Y4612D1*
X30098Y4589D1*
X30123Y4541D1*
Y4493D1*
X30098Y4445D1*
X30051Y4374D1*
X29811Y4134D1*
X30146D1*
X29364Y13594D2*
X29340Y13642D1*
X29292Y13690D1*
X29245Y13713D1*
X29149D1*
X29101Y13690D1*
X29054Y13642D1*
X29029Y13594D1*
X29005Y13522D1*
Y13402D1*
X29029Y13331D1*
X29054Y13283D1*
X29101Y13235D1*
X29149Y13211D1*
X29245D1*
X29292Y13235D1*
X29340Y13283D1*
X29364Y13331D1*
X29519Y13617D2*
X29567Y13642D1*
X29638Y13713D1*
Y13211D1*
X29841Y13713D2*
X30103D1*
X29960Y13522D1*
X30032D1*
X30080Y13498D1*
X30103Y13474D1*
X30128Y13402D1*
Y13355D1*
X30103Y13283D1*
X30056Y13235D1*
X29984Y13211D1*
X29912D1*
X29841Y13235D1*
X29817Y13259D1*
X29793Y13307D1*
X4336Y6732D2*
Y6229D1*
X4504D1*
X4575Y6254D1*
X4624Y6301D1*
X4647Y6349D1*
X4671Y6421D1*
Y6541D1*
X4647Y6612D1*
X4624Y6660D1*
X4575Y6708D1*
X4504Y6732D1*
X4336D1*
X4825Y6636D2*
X4874Y6660D1*
X4945Y6731D1*
Y6229D1*
X4354Y14482D2*
Y13979D1*
X4521D1*
X4593Y14004D1*
X4641Y14051D1*
X4665Y14099D1*
X4689Y14170D1*
Y14290D1*
X4665Y14362D1*
X4641Y14410D1*
X4593Y14458D1*
X4521Y14482D1*
X4354D1*
X4867Y14362D2*
Y14385D1*
X4891Y14434D1*
X4915Y14457D1*
X4963Y14481D1*
X5058D1*
X5106Y14457D1*
X5130Y14434D1*
X5154Y14385D1*
Y14338D1*
X5130Y14290D1*
X5082Y14219D1*
X4843Y13979D1*
X5178D1*
X28001Y5607D2*
Y5224D1*
X27977Y5152D1*
X27953Y5129D1*
X27905Y5104D1*
X27857D1*
X27810Y5129D1*
X27786Y5152D1*
X27762Y5224D1*
Y5272D1*
X28155Y5511D2*
X28204Y5535D1*
X28275Y5606D1*
Y5104D1*
X36681Y10613D2*
Y10231D1*
X36657Y10159D1*
X36633Y10135D1*
X36585Y10111D1*
X36537D1*
X36490Y10135D1*
X36466Y10159D1*
X36442Y10231D1*
Y10278D1*
X36860Y10493D2*
Y10517D1*
X36883Y10565D1*
X36907Y10589D1*
X36955Y10613D1*
X37051D1*
X37098Y10589D1*
X37122Y10565D1*
X37146Y10517D1*
Y10469D1*
X37122Y10421D1*
X37075Y10350D1*
X36835Y10111D1*
X37170D1*
X8197Y10666D2*
Y10284D1*
X8173Y10212D1*
X8149Y10188D1*
X8101Y10164D1*
X8053D1*
X8006Y10188D1*
X7982Y10212D1*
X7958Y10284D1*
Y10331D1*
X8399Y10666D2*
X8662D1*
X8519Y10475D1*
X8591D1*
X8638Y10451D1*
X8662Y10427D1*
X8686Y10355D1*
Y10308D1*
X8662Y10236D1*
X8614Y10188D1*
X8542Y10164D1*
X8471D1*
X8399Y10188D1*
X8376Y10212D1*
X8351Y10260D1*
X16156Y6267D2*
Y5884D1*
X16132Y5813D1*
X16108Y5789D1*
X16060Y5765D1*
X16012D1*
X15964Y5789D1*
X15941Y5813D1*
X15916Y5884D1*
Y5932D1*
X16549Y5765D2*
Y6266D1*
X16310Y5932D1*
X16669D1*
X21185Y12267D2*
Y11884D1*
X21161Y11812D1*
X21137Y11789D1*
X21089Y11764D1*
X21041D1*
X20994Y11789D1*
X20970Y11812D1*
X20946Y11884D1*
Y11932D1*
X21626Y12266D2*
X21388D1*
X21364Y12051D1*
X21388Y12075D1*
X21459Y12099D1*
X21531D1*
X21603Y12075D1*
X21651Y12027D1*
X21674Y11956D1*
Y11908D1*
X21651Y11836D1*
X21603Y11788D1*
X21531Y11764D1*
X21459D1*
X21388Y11788D1*
X21364Y11812D1*
X21339Y11860D1*
X8050Y6812D2*
X8265D1*
X8337Y6837D1*
X8361Y6860D1*
X8385Y6908D1*
Y6956D1*
X8361Y7004D1*
X8337Y7028D1*
X8265Y7052D1*
X8050D1*
Y6549D1*
X8217Y6812D2*
X8385Y6549D1*
X8779D2*
Y7051D1*
X8539Y6717D1*
X8898D1*
X8187Y13985D2*
X8402D1*
X8474Y14009D1*
X8498Y14033D1*
X8522Y14081D1*
Y14129D1*
X8498Y14176D1*
X8474Y14201D1*
X8402Y14224D1*
X8187D1*
Y13722D1*
X8354Y13985D2*
X8522Y13722D1*
X8963Y14224D2*
X8724D1*
X8700Y14009D1*
X8724Y14033D1*
X8796Y14057D1*
X8867D1*
X8939Y14033D1*
X8987Y13985D1*
X9011Y13913D1*
Y13866D1*
X8987Y13794D1*
X8939Y13746D1*
X8867Y13722D1*
X8796D1*
X8724Y13746D1*
X8700Y13770D1*
X8676Y13818D1*
X30369Y11427D2*
Y11068D1*
X30393Y10996D1*
X30441Y10949D1*
X30513Y10925D1*
X30561D1*
X30632Y10949D1*
X30681Y10996D1*
X30704Y11068D1*
Y11427D1*
X30883Y11307D2*
Y11331D1*
X30907Y11379D1*
X30931Y11403D1*
X30979Y11426D1*
X31074D1*
X31122Y11403D1*
X31146Y11379D1*
X31170Y11331D1*
Y11283D1*
X31146Y11235D1*
X31098Y11164D1*
X30859Y10925D1*
X31194D1*
X10434Y12487D2*
Y12129D1*
X10458Y12057D1*
X10506Y12009D1*
X10578Y11985D1*
X10626D1*
X10697Y12009D1*
X10746Y12057D1*
X10769Y12129D1*
Y12487D1*
X11043D2*
X10972Y12463D1*
X10947Y12416D1*
Y12367D1*
X10972Y12320D1*
X11019Y12296D1*
X11115Y12272D1*
X11187Y12248D1*
X11234Y12200D1*
X11258Y12152D1*
Y12081D1*
X11234Y12033D1*
X11211Y12009D1*
X11139Y11985D1*
X11043D1*
X10972Y12009D1*
X10947Y12033D1*
X10924Y12081D1*
Y12152D1*
X10947Y12200D1*
X10996Y12248D1*
X11067Y12272D1*
X11162Y12296D1*
X11211Y12320D1*
X11234Y12367D1*
Y12416D1*
X11211Y12463D1*
X11139Y12487D1*
X11043D1*
X23312Y10555D2*
X23504Y10315D1*
Y10052D1*
X23695Y10555D2*
X23504Y10315D1*
X23849Y10458D2*
X23897Y10483D1*
X23969Y10554D1*
Y10052D1*
X26705Y16159D2*
X26896Y15920D1*
Y15656D1*
X27087Y16159D2*
X26896Y15920D1*
X27266Y16039D2*
Y16063D1*
X27290Y16111D1*
X27313Y16135D1*
X27362Y16158D1*
X27457D1*
X27505Y16135D1*
X27528Y16111D1*
X27553Y16063D1*
Y16015D1*
X27528Y15967D1*
X27481Y15896D1*
X27242Y15656D1*
X27576D1*
X5791Y13647D2*
D39*
Y12786D1*
X5361Y13216D2*
X6222D1*
X5684Y7464D2*
Y8016D1*
X21834Y5980D2*
D107*
X22135D1*
Y6080D1*
X22121Y6124D1*
X22092Y6152D1*
X22063Y6167D1*
X22021Y6181D1*
X21949D1*
X21905Y6167D1*
X21877Y6152D1*
X21848Y6124D1*
X21834Y6080D1*
Y5980D1*
Y6374D2*
X22135D1*
X21834Y6274D2*
Y6475D1*
X21977Y6567D2*
Y6696D1*
X21963Y6739D1*
X21949Y6754D1*
X21920Y6768D1*
X21891D1*
X21863Y6754D1*
X21848Y6739D1*
X21834Y6696D1*
Y6567D1*
X22135D1*
X21977Y6668D2*
X22135Y6768D1*
X22962Y5980D2*
Y6109D1*
X22947Y6152D1*
X22933Y6167D1*
X22904Y6181D1*
X22875D1*
X22847Y6167D1*
X22832Y6152D1*
X22818Y6109D1*
Y5980D1*
X23120D1*
X22962Y6080D2*
X23120Y6181D1*
X22818Y6274D2*
X23120Y6474D1*
X22818D2*
X23120Y6274D1*
X23802Y6080D2*
X24104D1*
X23802Y5980D2*
Y6181D1*
Y6274D2*
X24104Y6475D1*
X23802D2*
X24104Y6274D1*
X24826Y6152D2*
Y6009D1*
X24955Y5995D1*
X24941Y6009D1*
X24926Y6052D1*
Y6095D1*
X24941Y6138D1*
X24970Y6167D1*
X25013Y6181D1*
X25041D1*
X25084Y6167D1*
X25113Y6138D1*
X25127Y6095D1*
Y6052D1*
X25113Y6009D1*
X25099Y5995D1*
X25070Y5980D1*
X24826Y6274D2*
X25127Y6388D1*
X24826Y6503D1*
X26859Y6156D2*
X26831Y6142D1*
X26802Y6113D1*
X26788Y6084D1*
Y6027D1*
X26802Y5998D1*
X26831Y5969D1*
X26859Y5955D1*
X26902Y5941D1*
X26974D1*
X27017Y5955D1*
X27046Y5969D1*
X27074Y5998D1*
X27089Y6027D1*
Y6084D1*
X27074Y6113D1*
X27046Y6142D1*
X27017Y6156D1*
X26974D1*
Y6084D1*
X26788Y6449D2*
X27089D1*
X26788Y6248D1*
X27089D1*
X26788Y6542D2*
X27089D1*
Y6642D1*
X27074Y6686D1*
X27046Y6714D1*
X27017Y6729D1*
X26974Y6743D1*
X26902D1*
X26859Y6729D1*
X26831Y6714D1*
X26802Y6686D1*
X26788Y6642D1*
Y6542D1*
X9626Y4994D2*
D109*
X9971D1*
X10085Y5032D1*
X10124Y5071D1*
X10162Y5147D1*
Y5262D1*
X10124Y5338D1*
X10085Y5377D1*
X9971Y5415D1*
X9626D1*
Y4611D1*
X10868Y5147D2*
Y4611D1*
Y5032D2*
X10792Y5109D1*
X10715Y5147D1*
X10601D1*
X10524Y5109D1*
X10448Y5032D1*
X10409Y4917D1*
Y4841D1*
X10448Y4726D1*
X10524Y4650D1*
X10601Y4611D1*
X10715D1*
X10792Y4650D1*
X10868Y4726D1*
X11174Y5147D2*
Y4611D1*
X11457Y5147D2*
Y4611D1*
X11174Y5147D2*
X11457D1*
X11115Y4611D2*
X11516D1*
X11115D2*
Y4558D1*
X11516Y4611D2*
Y4558D1*
X11802Y5147D2*
X12031Y4611D1*
X11955Y4458D1*
X11878Y4381D1*
X11802Y4343D1*
X11763D1*
X12261Y5147D2*
X12031Y4611D1*
X12882Y5147D2*
X12508D1*
Y4611D1*
X13587Y5147D2*
Y4611D1*
Y5032D2*
X13511Y5109D1*
X13435Y5147D1*
X13320D1*
X13243Y5109D1*
X13167Y5032D1*
X13129Y4917D1*
Y4841D1*
X13167Y4726D1*
X13243Y4650D1*
X13320Y4611D1*
X13435D1*
X13511Y4650D1*
X13587Y4726D1*
X13835Y5013D2*
X14277D1*
X15136Y4611D2*
Y5415D1*
X14830Y4611D1*
X14524Y5415D1*
Y4611D1*
X19155Y7320D2*
D107*
X19127Y7306D1*
X19098Y7277D1*
X19084Y7249D1*
Y7191D1*
X19098Y7162D1*
X19127Y7134D1*
X19155Y7119D1*
X19199Y7105D1*
X19271D1*
X19313Y7119D1*
X19342Y7134D1*
X19371Y7162D1*
X19385Y7191D1*
Y7249D1*
X19371Y7277D1*
X19342Y7306D1*
X19313Y7320D1*
X19271D1*
Y7249D1*
X19084Y7614D2*
X19385D1*
X19084Y7413D1*
X19385D1*
X19084Y7706D2*
X19385D1*
Y7807D1*
X19371Y7850D1*
X19342Y7879D1*
X19313Y7893D1*
X19271Y7907D1*
X19199D1*
X19155Y7893D1*
X19127Y7879D1*
X19098Y7850D1*
X19084Y7807D1*
Y7706D1*
X19227Y4167D2*
Y4296D1*
X19213Y4340D1*
X19199Y4354D1*
X19170Y4368D1*
X19141D1*
X19113Y4354D1*
X19098Y4340D1*
X19084Y4296D1*
Y4167D1*
X19385D1*
X19227Y4268D2*
X19385Y4368D1*
X19127Y4662D2*
X19098Y4633D1*
X19084Y4590D1*
Y4533D1*
X19098Y4490D1*
X19127Y4461D1*
X19155D1*
X19184Y4476D1*
X19199Y4490D1*
X19213Y4518D1*
X19242Y4605D1*
X19256Y4633D1*
X19271Y4648D1*
X19299Y4662D1*
X19342D1*
X19371Y4633D1*
X19385Y4590D1*
Y4533D1*
X19371Y4490D1*
X19342Y4461D1*
X19084Y4855D2*
X19385D1*
X19084Y4755D2*
Y4956D1*
X18314Y4368D2*
X18286Y4340D1*
X18271Y4297D1*
Y4239D1*
X18286Y4196D1*
X18314Y4167D1*
X18343D1*
X18372Y4182D1*
X18386Y4196D1*
X18400Y4225D1*
X18429Y4311D1*
X18443Y4340D1*
X18458Y4354D1*
X18487Y4368D1*
X18530D1*
X18558Y4340D1*
X18573Y4297D1*
Y4239D1*
X18558Y4196D1*
X18530Y4167D1*
X18343Y4676D2*
X18314Y4662D1*
X18286Y4633D1*
X18271Y4605D1*
Y4547D1*
X18286Y4518D1*
X18314Y4490D1*
X18343Y4475D1*
X18386Y4461D1*
X18458D1*
X18501Y4475D1*
X18530Y4490D1*
X18558Y4518D1*
X18573Y4547D1*
Y4605D1*
X18558Y4633D1*
X18530Y4662D1*
X18501Y4676D1*
X18271Y4769D2*
X18573D1*
X18271Y4970D2*
X18472Y4769D1*
X18400Y4841D2*
X18573Y4970D1*
X17760Y4397D2*
X17459D1*
X17760Y4282D1*
X17459Y4167D1*
X17760D1*
X17459Y4490D2*
X17760D1*
X17502Y4783D2*
X17473Y4755D1*
X17459Y4712D1*
Y4654D1*
X17473Y4611D1*
X17502Y4582D1*
X17531D1*
X17559Y4597D1*
X17574Y4611D1*
X17588Y4640D1*
X17617Y4726D1*
X17631Y4755D1*
X17646Y4769D1*
X17674Y4783D1*
X17717D1*
X17746Y4755D1*
X17760Y4712D1*
Y4654D1*
X17746Y4611D1*
X17717Y4582D1*
X17459Y4962D2*
X17473Y4933D1*
X17502Y4905D1*
X17531Y4890D1*
X17574Y4876D1*
X17646D1*
X17688Y4890D1*
X17717Y4905D1*
X17746Y4933D1*
X17760Y4962D1*
Y5019D1*
X17746Y5048D1*
X17717Y5077D1*
X17688Y5091D1*
X17646Y5105D1*
X17574D1*
X17531Y5091D1*
X17502Y5077D1*
X17473Y5048D1*
X17459Y5019D1*
Y4962D1*
X18573Y7334D2*
X18271D1*
X18573Y7220D1*
X18271Y7105D1*
X18573D1*
X18271Y7513D2*
X18286Y7484D1*
X18314Y7456D1*
X18343Y7441D1*
X18386Y7427D1*
X18458D1*
X18501Y7441D1*
X18530Y7456D1*
X18558Y7484D1*
X18573Y7513D1*
Y7571D1*
X18558Y7599D1*
X18530Y7628D1*
X18501Y7642D1*
X18458Y7657D1*
X18386D1*
X18343Y7642D1*
X18314Y7628D1*
X18286Y7599D1*
X18271Y7571D1*
Y7513D1*
X18314Y7950D2*
X18286Y7922D1*
X18271Y7879D1*
Y7821D1*
X18286Y7778D1*
X18314Y7749D1*
X18343D1*
X18372Y7764D1*
X18386Y7778D1*
X18400Y7807D1*
X18429Y7893D1*
X18443Y7922D1*
X18458Y7936D1*
X18487Y7950D1*
X18530D1*
X18558Y7922D1*
X18573Y7879D1*
Y7821D1*
X18558Y7778D1*
X18530Y7749D1*
X18271Y8043D2*
X18573D1*
X17459Y7105D2*
X17760Y7220D1*
X17459Y7334D1*
X17530Y7642D2*
X17502Y7628D1*
X17473Y7599D1*
X17459Y7571D1*
Y7513D1*
X17473Y7484D1*
X17502Y7456D1*
X17530Y7441D1*
X17574Y7427D1*
X17646D1*
X17688Y7441D1*
X17717Y7456D1*
X17746Y7484D1*
X17760Y7513D1*
Y7571D1*
X17746Y7599D1*
X17717Y7628D1*
X17688Y7642D1*
X17530Y7950D2*
X17502Y7936D1*
X17473Y7907D1*
X17459Y7879D1*
Y7821D1*
X17473Y7792D1*
X17502Y7764D1*
X17530Y7749D1*
X17574Y7735D1*
X17646D1*
X17688Y7749D1*
X17717Y7764D1*
X17746Y7792D1*
X17760Y7821D1*
Y7879D1*
X17746Y7907D1*
X17717Y7936D1*
X17688Y7950D1*
X25835Y6195D2*
X25807Y6181D1*
X25778Y6152D1*
X25763Y6124D1*
Y6066D1*
X25778Y6037D1*
X25807Y6009D1*
X25835Y5994D1*
X25878Y5980D1*
X25950D1*
X25993Y5994D1*
X26022Y6009D1*
X26050Y6037D1*
X26065Y6066D1*
Y6124D1*
X26050Y6152D1*
X26022Y6181D1*
X25993Y6195D1*
X25950D1*
Y6124D1*
X25763Y6489D2*
X26065D1*
X25763Y6288D1*
X26065D1*
X25763Y6581D2*
X26065D1*
Y6682D1*
X26050Y6725D1*
X26022Y6754D1*
X25993Y6768D1*
X25950Y6782D1*
X25878D1*
X25835Y6768D1*
X25807Y6754D1*
X25778Y6725D1*
X25763Y6682D1*
Y6581D1*
X19240Y11194D2*
X19211Y11223D1*
X19168Y11237D1*
X19111D1*
X19068Y11223D1*
X19039Y11194D1*
Y11166D1*
X19054Y11137D1*
X19068Y11123D1*
X19096Y11108D1*
X19183Y11080D1*
X19211Y11065D1*
X19226Y11051D1*
X19240Y11022D1*
Y10979D1*
X19211Y10951D1*
X19168Y10936D1*
X19111D1*
X19068Y10951D1*
X19039Y10979D1*
X19548Y11166D2*
X19534Y11194D1*
X19505Y11223D1*
X19476Y11237D1*
X19419D1*
X19390Y11223D1*
X19361Y11194D1*
X19347Y11166D1*
X19333Y11123D1*
Y11051D1*
X19347Y11008D1*
X19361Y10979D1*
X19390Y10951D1*
X19419Y10936D1*
X19476D1*
X19505Y10951D1*
X19534Y10979D1*
X19548Y11008D1*
X19640Y11237D2*
Y10936D1*
X19841Y11237D2*
X19640Y11037D1*
X19712Y11108D2*
X19841Y10936D1*
X19138Y10129D2*
Y10430D1*
X19024Y10129D1*
X18909Y10430D1*
Y10129D1*
X19231Y10430D2*
Y10129D1*
X19524Y10387D2*
X19496Y10416D1*
X19453Y10430D1*
X19395D1*
X19352Y10416D1*
X19324Y10387D1*
Y10359D1*
X19338Y10330D1*
X19352Y10315D1*
X19381Y10301D1*
X19467Y10272D1*
X19496Y10258D1*
X19510Y10243D1*
X19524Y10215D1*
Y10172D1*
X19496Y10143D1*
X19453Y10129D1*
X19395D1*
X19352Y10143D1*
X19324Y10172D1*
X19703Y10430D2*
X19674Y10416D1*
X19646Y10387D1*
X19631Y10359D1*
X19617Y10315D1*
Y10243D1*
X19631Y10201D1*
X19646Y10172D1*
X19674Y10143D1*
X19703Y10129D1*
X19761D1*
X19789Y10143D1*
X19818Y10172D1*
X19832Y10201D1*
X19847Y10243D1*
Y10315D1*
X19832Y10359D1*
X19818Y10387D1*
X19789Y10416D1*
X19761Y10430D1*
X19703D1*
X19138Y9254D2*
Y9555D1*
X19024Y9254D1*
X18909Y9555D1*
Y9254D1*
X19317Y9555D2*
X19288Y9541D1*
X19260Y9512D1*
X19245Y9484D1*
X19231Y9440D1*
Y9368D1*
X19245Y9326D1*
X19260Y9297D1*
X19288Y9268D1*
X19317Y9254D1*
X19374D1*
X19403Y9268D1*
X19432Y9297D1*
X19446Y9326D1*
X19460Y9368D1*
Y9440D1*
X19446Y9484D1*
X19432Y9512D1*
X19403Y9541D1*
X19374Y9555D1*
X19317D1*
X19754Y9512D2*
X19725Y9541D1*
X19682Y9555D1*
X19625D1*
X19582Y9541D1*
X19553Y9512D1*
Y9484D1*
X19568Y9455D1*
X19582Y9440D1*
X19610Y9426D1*
X19697Y9397D1*
X19725Y9383D1*
X19740Y9368D1*
X19754Y9340D1*
Y9297D1*
X19725Y9268D1*
X19682Y9254D1*
X19625D1*
X19582Y9268D1*
X19553Y9297D1*
X19847Y9555D2*
Y9254D1*
X17459Y8675D2*
Y8416D1*
X17330Y8545D2*
X17588D1*
X17380Y11549D2*
Y11290D1*
X17251Y11419D2*
X17510D1*
M02*
