G04 DipTrace 2.4.0.2*
%INНижняямаркировка.gbr*%
%MOIN*%
%ADD10C,0.0098*%
%ADD12C,0.003*%
%ADD36O,0.0164X0.0165*%
%ADD106C,0.0077*%
%ADD109C,0.0124*%
%FSLAX44Y44*%
G04*
G70*
G90*
G75*
G01*
%LNBotSilk*%
%LPD*%
X29347Y7075D2*
D10*
Y6446D1*
X29273Y7075D2*
Y6446D1*
Y7075D2*
X29509D1*
X29273Y6446D2*
X29509D1*
X22820Y13435D2*
Y14064D1*
X22895Y13435D2*
Y14064D1*
Y13435D2*
X22659D1*
X22895Y14064D2*
X22659D1*
X21826Y7132D2*
X22455D1*
X21826Y7058D2*
X22455D1*
X21826D2*
Y7293D1*
X22455Y7058D2*
Y7293D1*
X31899Y13252D2*
Y12622D1*
X31824Y13252D2*
Y12622D1*
Y13252D2*
X32060D1*
X31824Y12622D2*
X32060D1*
X7893Y9890D2*
Y7140D1*
X8025Y7141D2*
X8616D1*
X7893Y7140D2*
X8206D1*
X13694Y7102D2*
X13182D1*
X13706Y9890D2*
Y7140D1*
X7893Y11078D2*
Y12265D1*
X13706Y11078D2*
Y12265D1*
Y12328D2*
G02X7893Y12328I-2906J4361D01*
G01*
X32020Y6997D2*
X31784D1*
X32020Y7627D2*
X31784D1*
X31824Y11502D2*
X32060D1*
X31824Y10872D2*
X32060D1*
X31824Y9752D2*
X32060D1*
X31824Y9122D2*
X32060D1*
X18832Y10060D2*
X18597D1*
X18832Y10689D2*
X18597D1*
X15949D2*
X16185D1*
X15949Y10060D2*
X16185D1*
X18832Y12372D2*
X18597D1*
X18832Y13002D2*
X18597D1*
X15949D2*
X16185D1*
X15949Y12372D2*
X16185D1*
X18832Y7872D2*
X18597D1*
X18832Y8502D2*
X18597D1*
X15949D2*
X16185D1*
X15949Y7872D2*
X16185D1*
X28282Y11386D2*
X30250D1*
X28282Y10362D2*
X30250D1*
Y11386D2*
Y10362D1*
X28282Y11071D2*
Y11386D1*
Y10677D2*
Y10362D1*
Y11071D2*
G02X28282Y10677I0J-197D01*
G01*
X25984Y8693D2*
X23701D1*
Y10976D1*
X25984D1*
Y8693D1*
D36*
X26295Y8176D3*
G36*
X25984Y8693D2*
X25669D1*
X25984Y9008D1*
Y8693D1*
G37*
X9766Y5469D2*
D12*
D3*
X10215D2*
D3*
X11262D2*
D3*
X12429D2*
D3*
X13297D2*
X13476D1*
X9766Y5439D2*
X10095D1*
X10215D2*
X11112D1*
X11262D2*
X12369D1*
X12429D2*
X12728D1*
X13244D2*
X13520D1*
X13745D2*
X14613D1*
X9766Y5409D2*
X10095D1*
X10215D2*
X11133D1*
X11262D2*
X12369D1*
X12429D2*
X12728D1*
X13200D2*
X13561D1*
X13745D2*
X14645D1*
X9766Y5379D2*
X10095D1*
X10215D2*
X11151D1*
X11262D2*
X12369D1*
X12429D2*
X12728D1*
X13167D2*
X13597D1*
X13745D2*
X14670D1*
X9766Y5349D2*
X10095D1*
X10215D2*
X11162D1*
X11262D2*
X12369D1*
X12429D2*
X12728D1*
X13141D2*
X13611D1*
X13745D2*
X14686D1*
X9766Y5319D2*
X10095D1*
X10215D2*
X11168D1*
X11262D2*
X12369D1*
X12429D2*
X12728D1*
X13118D2*
X13620D1*
X13745D2*
X14695D1*
X9766Y5289D2*
X10095D1*
X10215D2*
X11170D1*
X11262D2*
X12369D1*
X12429D2*
X12728D1*
X13098D2*
X13623D1*
X13745D2*
X14700D1*
X9766Y5260D2*
X10095D1*
X10215D2*
X11171D1*
X11262D2*
X12369D1*
X12429D2*
X12728D1*
X13077D2*
X13625D1*
X13745D2*
X14702D1*
X9766Y5230D2*
X10095D1*
X10215D2*
X11172D1*
X11262D2*
X12369D1*
X12429D2*
X12728D1*
X13057D2*
X13625D1*
X13745D2*
X14702D1*
X9766Y5200D2*
X10095D1*
X10215D2*
X11172D1*
X11262D2*
X12369D1*
X12429D2*
X12728D1*
X13037D2*
X13626D1*
X13745D2*
X14703D1*
X9766Y5170D2*
X10093D1*
X10813D2*
X11169D1*
X11621D2*
X11980D1*
X12429D2*
X12728D1*
X13017D2*
X13626D1*
X14338D2*
X14703D1*
X9766Y5140D2*
X10088D1*
X10813D2*
X11163D1*
X11621D2*
X11980D1*
X12429D2*
X12728D1*
X12997D2*
X13626D1*
X14355D2*
X14703D1*
X9770Y5110D2*
X10052D1*
X10813D2*
X11131D1*
X11621D2*
X11980D1*
X12429D2*
X12728D1*
X12976D2*
X13626D1*
X14365D2*
X14703D1*
X9778Y5080D2*
X9949D1*
X11000D2*
X11081D1*
X11621D2*
X11980D1*
X12429D2*
X12728D1*
X12953D2*
X13626D1*
X14370D2*
X14703D1*
X9813Y5050D2*
X9826D1*
X11621D2*
X11980D1*
X12429D2*
X12728D1*
X12926D2*
X13626D1*
X14372D2*
X14703D1*
X9886Y5020D2*
X10095D1*
X10813D2*
X11172D1*
X11621D2*
X11980D1*
X12429D2*
X12728D1*
X12903D2*
X13626D1*
X13775D2*
X14703D1*
X9830Y4990D2*
X10095D1*
X10813D2*
X11172D1*
X11744D2*
X11980D1*
X12429D2*
X12728D1*
X12885D2*
X13291D1*
X13356D2*
X13626D1*
X13775D2*
X14703D1*
X9789Y4960D2*
X10095D1*
X10215D2*
X11172D1*
X11621D2*
X11651D1*
X11860D2*
X11980D1*
X12429D2*
X12728D1*
X12869D2*
X13278D1*
X13356D2*
X13626D1*
X13775D2*
X14703D1*
X9777Y4930D2*
X10095D1*
X10215D2*
X11172D1*
X11621D2*
X11752D1*
X12429D2*
X12731D1*
X12851D2*
X13260D1*
X13356D2*
X13626D1*
X13775D2*
X14703D1*
X9770Y4901D2*
X10095D1*
X10215D2*
X11172D1*
X11621D2*
X11843D1*
X12429D2*
X12736D1*
X12829D2*
X13238D1*
X13356D2*
X13626D1*
X13775D2*
X14703D1*
X9768Y4871D2*
X10095D1*
X10215D2*
X11172D1*
X11621D2*
X11920D1*
X12429D2*
X12759D1*
X12782D2*
X13219D1*
X13356D2*
X13626D1*
X13775D2*
X14701D1*
X9766Y4841D2*
X10095D1*
X10215D2*
X11172D1*
X11621D2*
X11956D1*
X12429D2*
X13201D1*
X13356D2*
X13626D1*
X13775D2*
X14697D1*
X9766Y4811D2*
X10095D1*
X10215D2*
X11172D1*
X11621D2*
X11969D1*
X12429D2*
X13184D1*
X13356D2*
X13626D1*
X13775D2*
X14671D1*
X9766Y4781D2*
X10095D1*
X10215D2*
X11172D1*
X11621D2*
X11975D1*
X12571D2*
X13164D1*
X13356D2*
X13626D1*
X13775D2*
X14604D1*
X9766Y4751D2*
X10095D1*
X10215D2*
X11172D1*
X11621D2*
X11978D1*
X12721D2*
X13140D1*
X13356D2*
X13626D1*
X14458D2*
X14523D1*
X9766Y4721D2*
X10095D1*
X10215D2*
X11172D1*
X11621D2*
X11979D1*
X12429D2*
X12519D1*
X12885D2*
X13109D1*
X13356D2*
X13626D1*
X14673D2*
X14703D1*
X9766Y4691D2*
X10095D1*
X10215D2*
X11172D1*
X11621D2*
X11980D1*
X12429D2*
X12638D1*
X13057D2*
X13070D1*
X13356D2*
X13626D1*
X14523D2*
X14703D1*
X9766Y4661D2*
X10095D1*
X10813D2*
X11172D1*
X11621D2*
X11980D1*
X12429D2*
X13027D1*
X13626D2*
D3*
X14374D2*
X14703D1*
X9765Y4631D2*
X10095D1*
X10813D2*
X11172D1*
X11621D2*
X11980D1*
X12429D2*
X13117D1*
X13356D2*
X13386D1*
X13626D2*
D3*
X14372D2*
X14703D1*
X9760Y4601D2*
X10095D1*
X10813D2*
X11172D1*
X11621D2*
X11980D1*
X12429D2*
X13088D1*
X13356D2*
X13626D1*
X14367D2*
X14703D1*
X9748Y4571D2*
X10095D1*
X10813D2*
X11172D1*
X11621D2*
X11980D1*
X12429D2*
X13063D1*
X13356D2*
X13626D1*
X14355D2*
X14703D1*
X9728Y4541D2*
X10095D1*
X10813D2*
X11172D1*
X11621D2*
X11980D1*
X12429D2*
X13044D1*
X13356D2*
X13626D1*
X14336D2*
X14703D1*
X9108Y4512D2*
X10095D1*
X10215D2*
X11172D1*
X11621D2*
X11980D1*
X12429D2*
X13029D1*
X13356D2*
X13626D1*
X13745D2*
X14703D1*
X9108Y4482D2*
X10095D1*
X10215D2*
X11172D1*
X11621D2*
X11980D1*
X12429D2*
X13012D1*
X13356D2*
X13626D1*
X13745D2*
X14703D1*
X9108Y4452D2*
X10095D1*
X10215D2*
X11172D1*
X11621D2*
X11980D1*
X12429D2*
X12990D1*
X13356D2*
X13626D1*
X13745D2*
X14703D1*
X9108Y4422D2*
X10095D1*
X10215D2*
X11172D1*
X11621D2*
X11980D1*
X12429D2*
X12966D1*
X13356D2*
X13626D1*
X13745D2*
X14702D1*
X9108Y4392D2*
X10094D1*
X10215D2*
X11171D1*
X11621D2*
X11980D1*
X12430D2*
X12941D1*
X13356D2*
X13626D1*
X13745D2*
X14698D1*
X9108Y4362D2*
X10089D1*
X10215D2*
X11166D1*
X11621D2*
X11980D1*
X12433D2*
X12918D1*
X13356D2*
X13626D1*
X13745D2*
X14689D1*
X9108Y4332D2*
X10077D1*
X10215D2*
X11154D1*
X11621D2*
X11980D1*
X12449D2*
X12890D1*
X13356D2*
X13626D1*
X13745D2*
X14677D1*
X9108Y4302D2*
X10058D1*
X10216D2*
X11135D1*
X11621D2*
X11979D1*
X12493D2*
X12845D1*
X13356D2*
X13624D1*
X13745D2*
X14661D1*
X9108Y4272D2*
X10035D1*
X10221D2*
X11112D1*
X11621D2*
X11974D1*
X12571D2*
X12766D1*
X13356D2*
X13620D1*
X13745D2*
X14643D1*
X10231Y4242D2*
X10215D1*
X11980D2*
X11964D1*
X12696D2*
X12641D1*
X13640D2*
X13610D1*
X9766Y5469D2*
Y5439D1*
Y5409D1*
Y5379D1*
Y5349D1*
Y5319D1*
Y5289D1*
Y5260D1*
Y5230D1*
Y5200D1*
Y5170D1*
Y5140D1*
X9770Y5110D1*
X9778Y5080D1*
X9813Y5050D1*
X9856Y5020D1*
X10215Y5469D2*
Y5439D1*
Y5409D1*
Y5379D1*
Y5349D1*
Y5319D1*
Y5289D1*
Y5260D1*
Y5230D1*
Y5200D1*
X11262Y5469D2*
Y5439D1*
Y5409D1*
Y5379D1*
Y5349D1*
Y5319D1*
Y5289D1*
Y5260D1*
Y5230D1*
Y5200D1*
X12429Y5469D2*
Y5439D1*
Y5409D1*
Y5379D1*
Y5349D1*
Y5319D1*
Y5289D1*
Y5260D1*
Y5230D1*
Y5200D1*
Y5170D1*
Y5140D1*
Y5110D1*
Y5080D1*
Y5050D1*
Y5020D1*
Y4990D1*
Y4960D1*
Y4930D1*
Y4901D1*
Y4871D1*
Y4841D1*
Y4811D1*
X12571Y4781D1*
X12721Y4751D1*
X12885Y4721D1*
X13057Y4691D1*
X13297Y5469D2*
X13244Y5439D1*
X13200Y5409D1*
X13167Y5379D1*
X13141Y5349D1*
X13118Y5319D1*
X13098Y5289D1*
X13077Y5260D1*
X13057Y5230D1*
X13037Y5200D1*
X13017Y5170D1*
X12997Y5140D1*
X12976Y5110D1*
X12953Y5080D1*
X12926Y5050D1*
X12903Y5020D1*
X12885Y4990D1*
X12869Y4960D1*
X12851Y4930D1*
X12829Y4901D1*
X12782Y4871D1*
X12728Y4841D1*
X13476Y5469D2*
X13520Y5439D1*
X13561Y5409D1*
X13597Y5379D1*
X13611Y5349D1*
X13620Y5319D1*
X13623Y5289D1*
X13625Y5260D1*
Y5230D1*
X13626Y5200D1*
Y5170D1*
Y5140D1*
Y5110D1*
Y5080D1*
Y5050D1*
Y5020D1*
Y4990D1*
Y4960D1*
Y4930D1*
Y4901D1*
Y4871D1*
Y4841D1*
Y4811D1*
Y4781D1*
Y4751D1*
Y4721D1*
Y4691D1*
Y4661D1*
Y4631D1*
Y4601D1*
Y4571D1*
Y4541D1*
Y4512D1*
Y4482D1*
Y4452D1*
Y4422D1*
Y4392D1*
Y4362D1*
Y4332D1*
X13624Y4302D1*
X13620Y4272D1*
X13610Y4242D1*
X13596Y4212D1*
X10095Y5439D2*
Y5409D1*
Y5379D1*
Y5349D1*
Y5319D1*
Y5289D1*
Y5260D1*
Y5230D1*
Y5200D1*
X10093Y5170D1*
X10088Y5140D1*
X10052Y5110D1*
X9949Y5080D1*
X9826Y5050D1*
X11112Y5439D2*
X11133Y5409D1*
X11151Y5379D1*
X11162Y5349D1*
X11168Y5319D1*
X11170Y5289D1*
X11171Y5260D1*
X11172Y5230D1*
Y5200D1*
X11169Y5170D1*
X11163Y5140D1*
X11131Y5110D1*
X11081Y5080D1*
X11023Y5050D1*
X12369Y5439D2*
Y5409D1*
Y5379D1*
Y5349D1*
Y5319D1*
Y5289D1*
Y5260D1*
Y5230D1*
Y5200D1*
X12728Y5439D2*
Y5409D1*
Y5379D1*
Y5349D1*
Y5319D1*
Y5289D1*
Y5260D1*
Y5230D1*
Y5200D1*
Y5170D1*
Y5140D1*
Y5110D1*
Y5080D1*
Y5050D1*
Y5020D1*
Y4990D1*
Y4960D1*
X12731Y4930D1*
X12736Y4901D1*
X12759Y4871D1*
X12788Y4841D1*
X13745Y5439D2*
Y5409D1*
Y5379D1*
Y5349D1*
Y5319D1*
Y5289D1*
Y5260D1*
Y5230D1*
Y5200D1*
X14613Y5439D2*
X14645Y5409D1*
X14670Y5379D1*
X14686Y5349D1*
X14695Y5319D1*
X14700Y5289D1*
X14702Y5260D1*
Y5230D1*
X14703Y5200D1*
Y5170D1*
Y5140D1*
Y5110D1*
Y5080D1*
Y5050D1*
Y5020D1*
Y4990D1*
Y4960D1*
Y4930D1*
Y4901D1*
X14701Y4871D1*
X14697Y4841D1*
X14671Y4811D1*
X14604Y4781D1*
X14523Y4751D1*
X10813Y5200D2*
Y5170D1*
Y5140D1*
Y5110D1*
X11000Y5080D1*
X11172Y5050D1*
X11621Y5200D2*
Y5170D1*
Y5140D1*
Y5110D1*
Y5080D1*
Y5050D1*
Y5020D1*
X11744Y4990D1*
X11860Y4960D1*
X11980Y5200D2*
Y5170D1*
Y5140D1*
Y5110D1*
Y5080D1*
Y5050D1*
Y5020D1*
Y4990D1*
Y4960D1*
X11830Y4930D1*
X14314Y5200D2*
X14338Y5170D1*
X14355Y5140D1*
X14365Y5110D1*
X14370Y5080D1*
X14372Y5050D1*
X14374Y5020D1*
X9886D2*
X9830Y4990D1*
X9789Y4960D1*
X9777Y4930D1*
X9770Y4901D1*
X9768Y4871D1*
X9766Y4841D1*
Y4811D1*
Y4781D1*
Y4751D1*
Y4721D1*
Y4691D1*
Y4661D1*
X9765Y4631D1*
X9760Y4601D1*
X9748Y4571D1*
X9728Y4541D1*
X9706Y4512D1*
X10095Y5020D2*
Y4990D1*
Y4960D1*
Y4930D1*
Y4901D1*
Y4871D1*
Y4841D1*
Y4811D1*
Y4781D1*
Y4751D1*
Y4721D1*
Y4691D1*
Y4661D1*
Y4631D1*
Y4601D1*
Y4571D1*
Y4541D1*
Y4512D1*
Y4482D1*
Y4452D1*
Y4422D1*
X10094Y4392D1*
X10089Y4362D1*
X10077Y4332D1*
X10058Y4302D1*
X10035Y4272D1*
X10813Y5020D2*
Y4990D1*
Y4960D1*
X11172Y5020D2*
Y4990D1*
Y4960D1*
Y4930D1*
Y4901D1*
Y4871D1*
Y4841D1*
Y4811D1*
Y4781D1*
Y4751D1*
Y4721D1*
Y4691D1*
Y4661D1*
Y4631D1*
Y4601D1*
Y4571D1*
Y4541D1*
Y4512D1*
Y4482D1*
Y4452D1*
Y4422D1*
X11171Y4392D1*
X11166Y4362D1*
X11154Y4332D1*
X11135Y4302D1*
X11112Y4272D1*
X13775Y5020D2*
Y4990D1*
Y4960D1*
Y4930D1*
Y4901D1*
Y4871D1*
Y4841D1*
Y4811D1*
Y4781D1*
X13297Y5020D2*
X13291Y4990D1*
X13278Y4960D1*
X13260Y4930D1*
X13238Y4901D1*
X13219Y4871D1*
X13201Y4841D1*
X13184Y4811D1*
X13164Y4781D1*
X13140Y4751D1*
X13109Y4721D1*
X13070Y4691D1*
X13027Y4661D1*
X13117Y4631D1*
X13088Y4601D1*
X13063Y4571D1*
X13044Y4541D1*
X13029Y4512D1*
X13012Y4482D1*
X12990Y4452D1*
X12966Y4422D1*
X12941Y4392D1*
X12918Y4362D1*
X12890Y4332D1*
X12845Y4302D1*
X12766Y4272D1*
X12641Y4242D1*
X12489Y4212D1*
X13356Y5020D2*
Y4990D1*
Y4960D1*
Y4930D1*
Y4901D1*
Y4871D1*
Y4841D1*
Y4811D1*
Y4781D1*
Y4751D1*
Y4721D1*
Y4691D1*
Y4661D1*
X13626D1*
Y4631D1*
X13416Y4601D1*
X10215Y4960D2*
Y4930D1*
Y4901D1*
Y4871D1*
Y4841D1*
Y4811D1*
Y4781D1*
Y4751D1*
Y4721D1*
Y4691D1*
X11621Y4960D2*
Y4930D1*
Y4901D1*
Y4871D1*
Y4841D1*
Y4811D1*
Y4781D1*
Y4751D1*
Y4721D1*
Y4691D1*
Y4661D1*
Y4631D1*
Y4601D1*
Y4571D1*
Y4541D1*
Y4512D1*
Y4482D1*
Y4452D1*
Y4422D1*
Y4392D1*
Y4362D1*
Y4332D1*
Y4302D1*
Y4272D1*
X11651Y4960D2*
X11752Y4930D1*
X11843Y4901D1*
X11920Y4871D1*
X11956Y4841D1*
X11969Y4811D1*
X11975Y4781D1*
X11978Y4751D1*
X11979Y4721D1*
X11980Y4691D1*
Y4661D1*
Y4631D1*
Y4601D1*
Y4571D1*
Y4541D1*
Y4512D1*
Y4482D1*
Y4452D1*
Y4422D1*
Y4392D1*
Y4362D1*
Y4332D1*
X11979Y4302D1*
X11974Y4272D1*
X11964Y4242D1*
X11950Y4212D1*
X14344Y4781D2*
X14458Y4751D1*
X14583Y4721D1*
X12429D2*
Y4691D1*
Y4661D1*
Y4631D1*
Y4601D1*
Y4571D1*
Y4541D1*
Y4512D1*
Y4482D1*
Y4452D1*
Y4422D1*
X12430Y4392D1*
X12433Y4362D1*
X12449Y4332D1*
X12493Y4302D1*
X12571Y4272D1*
X12696Y4242D1*
X12848Y4212D1*
X12519Y4721D2*
X12638Y4691D1*
X12758Y4661D1*
X14673Y4721D2*
X14523Y4691D1*
X14374Y4661D1*
X14372Y4631D1*
X14367Y4601D1*
X14355Y4571D1*
X14336Y4541D1*
X14314Y4512D1*
X14703Y4721D2*
Y4691D1*
Y4661D1*
Y4631D1*
Y4601D1*
Y4571D1*
Y4541D1*
Y4512D1*
Y4482D1*
Y4452D1*
X14702Y4422D1*
X14698Y4392D1*
X14689Y4362D1*
X14677Y4332D1*
X14661Y4302D1*
X14643Y4272D1*
X10813Y4691D2*
Y4661D1*
Y4631D1*
Y4601D1*
Y4571D1*
Y4541D1*
Y4512D1*
X13356Y4631D2*
Y4601D1*
Y4571D1*
Y4541D1*
Y4512D1*
Y4482D1*
Y4452D1*
Y4422D1*
Y4392D1*
Y4362D1*
Y4332D1*
Y4302D1*
Y4272D1*
X13640Y4242D1*
X13925Y4212D1*
X13386Y4631D2*
X13416Y4601D1*
X9108Y4512D2*
Y4482D1*
Y4452D1*
Y4422D1*
Y4392D1*
Y4362D1*
Y4332D1*
Y4302D1*
Y4272D1*
X10215Y4512D2*
Y4482D1*
Y4452D1*
Y4422D1*
Y4392D1*
Y4362D1*
Y4332D1*
X10216Y4302D1*
X10221Y4272D1*
X10231Y4242D1*
X10245Y4212D1*
X13745Y4512D2*
Y4482D1*
Y4452D1*
Y4422D1*
Y4392D1*
Y4362D1*
Y4332D1*
Y4302D1*
Y4272D1*
X29456Y7665D2*
D106*
X29480Y7713D1*
X29528Y7761D1*
X29575Y7785D1*
X29671D1*
X29719Y7761D1*
X29767Y7713D1*
X29791Y7665D1*
X29815Y7594D1*
Y7474D1*
X29791Y7402D1*
X29767Y7354D1*
X29719Y7307D1*
X29671Y7282D1*
X29575D1*
X29528Y7307D1*
X29480Y7354D1*
X29456Y7402D1*
X29254Y7784D2*
X28991D1*
X29134Y7593D1*
X29062D1*
X29015Y7569D1*
X28991Y7546D1*
X28967Y7474D1*
Y7426D1*
X28991Y7354D1*
X29039Y7306D1*
X29110Y7282D1*
X29182D1*
X29254Y7306D1*
X29277Y7331D1*
X29302Y7378D1*
X21370Y13684D2*
X21393Y13732D1*
X21441Y13780D1*
X21489Y13804D1*
X21585D1*
X21633Y13780D1*
X21680Y13732D1*
X21705Y13684D1*
X21728Y13612D1*
Y13492D1*
X21705Y13421D1*
X21680Y13373D1*
X21633Y13326D1*
X21585Y13301D1*
X21489D1*
X21441Y13326D1*
X21393Y13373D1*
X21370Y13421D1*
X20928Y13732D2*
X20952Y13779D1*
X21024Y13803D1*
X21072D1*
X21143Y13779D1*
X21191Y13707D1*
X21215Y13588D1*
Y13469D1*
X21191Y13373D1*
X21143Y13325D1*
X21072Y13301D1*
X21048D1*
X20976Y13325D1*
X20928Y13373D1*
X20905Y13445D1*
Y13469D1*
X20928Y13540D1*
X20976Y13588D1*
X21048Y13612D1*
X21072D1*
X21143Y13588D1*
X21191Y13540D1*
X21215Y13469D1*
X21174Y6741D2*
X21126Y6764D1*
X21078Y6813D1*
X21054Y6860D1*
Y6956D1*
X21078Y7004D1*
X21126Y7051D1*
X21174Y7076D1*
X21245Y7099D1*
X21365D1*
X21437Y7076D1*
X21485Y7051D1*
X21532Y7004D1*
X21557Y6956D1*
Y6860D1*
X21532Y6813D1*
X21485Y6764D1*
X21437Y6741D1*
X21055Y6467D2*
X21079Y6538D1*
X21126Y6563D1*
X21174D1*
X21222Y6538D1*
X21246Y6491D1*
X21270Y6395D1*
X21294Y6323D1*
X21342Y6276D1*
X21389Y6252D1*
X21461D1*
X21509Y6276D1*
X21533Y6299D1*
X21557Y6371D1*
Y6467D1*
X21533Y6538D1*
X21509Y6563D1*
X21461Y6586D1*
X21389D1*
X21342Y6563D1*
X21294Y6514D1*
X21270Y6443D1*
X21246Y6348D1*
X21222Y6299D1*
X21174Y6276D1*
X21126D1*
X21079Y6299D1*
X21055Y6371D1*
Y6467D1*
X33214Y13046D2*
X33167Y13070D1*
X33119Y13118D1*
X33095Y13166D1*
Y13261D1*
X33119Y13309D1*
X33167Y13357D1*
X33214Y13381D1*
X33286Y13405D1*
X33406D1*
X33477Y13381D1*
X33525Y13357D1*
X33573Y13309D1*
X33597Y13261D1*
Y13166D1*
X33573Y13118D1*
X33525Y13070D1*
X33477Y13046D1*
X33262Y12581D2*
X33334Y12605D1*
X33382Y12653D1*
X33406Y12724D1*
Y12748D1*
X33382Y12820D1*
X33334Y12868D1*
X33262Y12892D1*
X33238D1*
X33167Y12868D1*
X33119Y12820D1*
X33095Y12748D1*
Y12724D1*
X33119Y12653D1*
X33167Y12605D1*
X33262Y12581D1*
X33382D1*
X33502Y12605D1*
X33573Y12653D1*
X33597Y12724D1*
Y12772D1*
X33573Y12844D1*
X33525Y12868D1*
X11039Y10552D2*
Y11054D1*
X11230Y10552D1*
X11421Y11054D1*
Y10552D1*
X10549Y10983D2*
X10597Y11031D1*
X10669Y11054D1*
X10764D1*
X10836Y11031D1*
X10884Y10983D1*
Y10935D1*
X10860Y10887D1*
X10836Y10863D1*
X10789Y10839D1*
X10645Y10791D1*
X10597Y10768D1*
X10573Y10743D1*
X10549Y10696D1*
Y10624D1*
X10597Y10576D1*
X10669Y10552D1*
X10764D1*
X10836Y10576D1*
X10884Y10624D1*
X10395Y11054D2*
Y10552D1*
X10227D1*
X10156Y10576D1*
X10107Y10624D1*
X10084Y10672D1*
X10060Y10743D1*
Y10863D1*
X10084Y10935D1*
X10107Y10983D1*
X10156Y11031D1*
X10227Y11054D1*
X10395D1*
X33326Y7578D2*
Y7363D1*
X33301Y7291D1*
X33278Y7267D1*
X33230Y7243D1*
X33182D1*
X33135Y7267D1*
X33110Y7291D1*
X33086Y7363D1*
Y7578D1*
X33589D1*
X33326Y7411D2*
X33589Y7243D1*
X33183Y7089D2*
X33158Y7041D1*
X33087Y6969D1*
X33589D1*
X33350Y11624D2*
Y11409D1*
X33325Y11337D1*
X33302Y11312D1*
X33254Y11289D1*
X33206D1*
X33159Y11312D1*
X33134Y11337D1*
X33110Y11409D1*
Y11624D1*
X33613D1*
X33350Y11456D2*
X33613Y11289D1*
X33230Y11110D2*
X33207D1*
X33159Y11086D1*
X33135Y11062D1*
X33111Y11014D1*
Y10919D1*
X33135Y10871D1*
X33159Y10847D1*
X33207Y10823D1*
X33254D1*
X33302Y10847D1*
X33374Y10895D1*
X33613Y11134D1*
Y10799D1*
X33334Y9826D2*
Y9611D1*
X33310Y9539D1*
X33286Y9515D1*
X33238Y9491D1*
X33190D1*
X33143Y9515D1*
X33119Y9539D1*
X33095Y9611D1*
Y9826D1*
X33597D1*
X33334Y9659D2*
X33597Y9491D1*
X33095Y9289D2*
Y9026D1*
X33287Y9170D1*
Y9098D1*
X33310Y9050D1*
X33334Y9026D1*
X33406Y9002D1*
X33453D1*
X33525Y9026D1*
X33573Y9074D1*
X33597Y9146D1*
Y9218D1*
X33573Y9289D1*
X33549Y9313D1*
X33502Y9337D1*
X19115Y11159D2*
X18900D1*
X18828Y11184D1*
X18803Y11207D1*
X18780Y11255D1*
Y11303D1*
X18803Y11350D1*
X18828Y11375D1*
X18900Y11399D1*
X19115D1*
Y10896D1*
X18947Y11159D2*
X18780Y10896D1*
X18338Y11327D2*
X18362Y11374D1*
X18434Y11398D1*
X18482D1*
X18553Y11374D1*
X18601Y11302D1*
X18625Y11183D1*
Y11064D1*
X18601Y10968D1*
X18553Y10920D1*
X18482Y10896D1*
X18458D1*
X18386Y10920D1*
X18338Y10968D1*
X18315Y11040D1*
Y11064D1*
X18338Y11135D1*
X18386Y11183D1*
X18458Y11207D1*
X18482D1*
X18553Y11183D1*
X18601Y11135D1*
X18625Y11064D1*
X16479Y11222D2*
X16264D1*
X16192Y11246D1*
X16168Y11270D1*
X16144Y11317D1*
Y11365D1*
X16168Y11413D1*
X16192Y11437D1*
X16264Y11461D1*
X16479D1*
Y10959D1*
X16312Y11222D2*
X16144Y10959D1*
X15894D2*
X15655Y11461D1*
X15990D1*
X19126Y13534D2*
X18911D1*
X18840Y13559D1*
X18815Y13582D1*
X18791Y13630D1*
Y13678D1*
X18815Y13725D1*
X18840Y13750D1*
X18911Y13774D1*
X19126D1*
Y13271D1*
X18959Y13534D2*
X18791Y13271D1*
X18518Y13773D2*
X18589Y13749D1*
X18613Y13702D1*
Y13654D1*
X18589Y13606D1*
X18541Y13582D1*
X18446Y13558D1*
X18374Y13534D1*
X18326Y13486D1*
X18303Y13439D1*
Y13367D1*
X18326Y13319D1*
X18350Y13295D1*
X18422Y13271D1*
X18518D1*
X18589Y13295D1*
X18613Y13319D1*
X18637Y13367D1*
Y13439D1*
X18613Y13486D1*
X18565Y13534D1*
X18494Y13558D1*
X18398Y13582D1*
X18350Y13606D1*
X18326Y13654D1*
Y13702D1*
X18350Y13749D1*
X18422Y13773D1*
X18518D1*
X16467Y13534D2*
X16252D1*
X16180Y13559D1*
X16156Y13582D1*
X16132Y13630D1*
Y13678D1*
X16156Y13725D1*
X16180Y13750D1*
X16252Y13774D1*
X16467D1*
Y13271D1*
X16300Y13534D2*
X16132Y13271D1*
X15667Y13606D2*
X15691Y13534D1*
X15739Y13486D1*
X15810Y13462D1*
X15834D1*
X15906Y13486D1*
X15954Y13534D1*
X15978Y13606D1*
Y13630D1*
X15954Y13702D1*
X15906Y13749D1*
X15834Y13773D1*
X15810D1*
X15739Y13749D1*
X15691Y13702D1*
X15667Y13606D1*
Y13486D1*
X15691Y13367D1*
X15739Y13295D1*
X15810Y13271D1*
X15858D1*
X15930Y13295D1*
X15954Y13343D1*
X19260Y9016D2*
X19045D1*
X18973Y9040D1*
X18949Y9064D1*
X18925Y9111D1*
Y9160D1*
X18949Y9207D1*
X18973Y9231D1*
X19045Y9255D1*
X19260D1*
Y8753D1*
X19093Y9016D2*
X18925Y8753D1*
X18771Y9159D2*
X18723Y9183D1*
X18651Y9255D1*
Y8753D1*
X18353Y9255D2*
X18425Y9231D1*
X18473Y9159D1*
X18496Y9040D1*
Y8968D1*
X18473Y8848D1*
X18425Y8777D1*
X18353Y8753D1*
X18305D1*
X18233Y8777D1*
X18186Y8848D1*
X18162Y8968D1*
Y9040D1*
X18186Y9159D1*
X18233Y9231D1*
X18305Y9255D1*
X18353D1*
X18186Y9159D2*
X18473Y8848D1*
X16497Y9007D2*
X16282D1*
X16210Y9031D1*
X16186Y9055D1*
X16162Y9103D1*
Y9151D1*
X16186Y9198D1*
X16210Y9223D1*
X16282Y9246D1*
X16497D1*
Y8744D1*
X16329Y9007D2*
X16162Y8744D1*
X16008Y9150D2*
X15960Y9174D1*
X15888Y9246D1*
Y8744D1*
X15733Y9150D2*
X15685Y9174D1*
X15613Y9246D1*
Y8744D1*
X30967Y12038D2*
Y11679D1*
X30943Y11607D1*
X30895Y11559D1*
X30824Y11535D1*
X30776D1*
X30704Y11559D1*
X30656Y11607D1*
X30632Y11679D1*
Y12038D1*
X30478Y11941D2*
X30430Y11966D1*
X30358Y12037D1*
Y11535D1*
X27136Y11743D2*
Y11384D1*
X27112Y11312D1*
X27064Y11265D1*
X26992Y11241D1*
X26945D1*
X26873Y11265D1*
X26825Y11312D1*
X26801Y11384D1*
Y11743D1*
X26598Y11742D2*
X26336D1*
X26479Y11551D1*
X26407D1*
X26360Y11527D1*
X26336Y11504D1*
X26311Y11432D1*
Y11384D1*
X26336Y11312D1*
X26383Y11264D1*
X26455Y11241D1*
X26527D1*
X26598Y11264D1*
X26622Y11289D1*
X26646Y11336D1*
X36966Y7625D2*
D109*
Y7970D1*
X37004Y8084D1*
X37042Y8123D1*
X37119Y8161D1*
X37233D1*
X37310Y8123D1*
X37348Y8084D1*
X37386Y7970D1*
Y7625D1*
X36583D1*
X37119Y8867D2*
X36583D1*
X37004D2*
X37081Y8791D1*
X37119Y8714D1*
Y8600D1*
X37081Y8523D1*
X37004Y8447D1*
X36889Y8408D1*
X36813D1*
X36698Y8447D1*
X36622Y8523D1*
X36583Y8600D1*
Y8714D1*
X36622Y8791D1*
X36698Y8867D1*
X37119Y9173D2*
X36583D1*
X37119Y9456D2*
X36583D1*
X37119Y9173D2*
Y9456D1*
X36583Y9114D2*
Y9516D1*
Y9114D2*
X36530D1*
X36583Y9516D2*
X36530D1*
X37119Y9802D2*
X36583Y10031D1*
X36430Y9954D1*
X36353Y9878D1*
X36315Y9802D1*
Y9763D1*
X37119Y10260D2*
X36583Y10031D1*
X37119Y10881D2*
Y10507D1*
X36583D1*
X37119Y11587D2*
X36583D1*
X37004D2*
X37081Y11511D1*
X37119Y11434D1*
Y11320D1*
X37081Y11243D1*
X37004Y11167D1*
X36889Y11128D1*
X36813D1*
X36698Y11167D1*
X36622Y11243D1*
X36583Y11320D1*
Y11434D1*
X36622Y11511D1*
X36698Y11587D1*
X36984Y11834D2*
Y12276D1*
X36583Y13135D2*
X37386D1*
X36583Y12829D1*
X37386Y12523D1*
X36583D1*
M02*
